<svg xmlns="http://www.w3.org/2000/svg" width="18" height="18" viewBox="0 0 18 18">
  <g id="Filled" transform="translate(-4 -4)">
    <g id="Group_2839" data-name="Group 2839" transform="translate(4 4)">
      <path id="Path_8613" data-name="Path 8613" d="M9.625,11.875H6.25A2.25,2.25,0,0,1,4,9.625V6.25A2.25,2.25,0,0,1,6.25,4H9.625a2.25,2.25,0,0,1,2.25,2.25V9.625A2.25,2.25,0,0,1,9.625,11.875Z" transform="translate(-4 -4)" fill="#fff"/>
      <path id="Path_8614" data-name="Path 8614" d="M16.938,11.875a3.938,3.938,0,1,1,3.938-3.938A3.938,3.938,0,0,1,16.938,11.875Z" transform="translate(-2.875 -4)" fill="#fff"/>
      <path id="Path_8615" data-name="Path 8615" d="M18.625,20.875H15.25A2.25,2.25,0,0,1,13,18.625V15.25A2.25,2.25,0,0,1,15.25,13h3.375a2.25,2.25,0,0,1,2.25,2.25v3.375A2.25,2.25,0,0,1,18.625,20.875Z" transform="translate(-2.875 -2.875)" fill="#fff"/>
      <path id="Path_8616" data-name="Path 8616" d="M9.625,20.875H6.25A2.25,2.25,0,0,1,4,18.625V15.25A2.25,2.25,0,0,1,6.25,13H9.625a2.25,2.25,0,0,1,2.25,2.25v3.375A2.25,2.25,0,0,1,9.625,20.875Z" transform="translate(-4 -2.875)" fill="#fff"/>
    </g>
  </g>
</svg>
