<svg xmlns="http://www.w3.org/2000/svg" width="24" height="18.12" viewBox="0 0 24 18.12">
  <g id="free-icon-font-eye-3917015" transform="translate(0 -2.94)">
    <path id="Path_15665" data-name="Path 15665" d="M23.8,11.478C23.67,11.129,20.5,2.94,12,2.94S.326,11.129.2,11.478L0,12l.2.522c.13.349,3.3,8.538,11.8,8.538s11.674-8.189,11.8-8.538L24,12ZM12,18.085c-5.418,0-8.041-4.514-8.79-6.085C3.961,10.425,6.585,5.915,12,5.915S20.038,10.424,20.79,12C20.038,13.576,17.415,18.085,12,18.085Z" fill="#033e73"/>
    <circle id="Ellipse_346" data-name="Ellipse 346" cx="4" cy="4" r="4" transform="translate(8 8)" fill="#033e73"/>
  </g>
</svg>
