<svg id="free-icon-font-download-3917768" xmlns="http://www.w3.org/2000/svg" width="22" height="22" viewBox="0 0 22 22">
  <path id="Path_15666" data-name="Path 15666" d="M114.728,15.7a4.4,4.4,0,0,0,5.976,0h0l3.016-2.85a1.28,1.28,0,0,0,.035-1.882,1.467,1.467,0,0,0-1.992-.033l-.035.033-2.613,2.468-.022-12.109A1.371,1.371,0,0,0,117.684,0h0a1.371,1.371,0,0,0-1.408,1.331l.02,12.089L113.7,10.971a1.467,1.467,0,0,0-1.992.033,1.279,1.279,0,0,0,0,1.849Z" transform="translate(-106.687)" fill="#033e73"/>
  <path id="Path_15667" data-name="Path 15667" d="M20.625,309.333a1.353,1.353,0,0,0-1.375,1.331v4.073a.37.37,0,0,1-.375.363H3.125a.37.37,0,0,1-.375-.363v-4.073a1.353,1.353,0,0,0-1.375-1.331A1.353,1.353,0,0,0,0,310.664v4.073a3.079,3.079,0,0,0,3.125,3.024h15.75A3.079,3.079,0,0,0,22,314.737v-4.073A1.353,1.353,0,0,0,20.625,309.333Z" transform="translate(0 -295.761)" fill="#033e73"/>
</svg>
