<svg xmlns="http://www.w3.org/2000/svg" width="24.026" height="20.381" viewBox="0 0 24.026 20.381">
  <g id="grouppeople" transform="translate(0 -38.84)">
    <g id="Group_2828" data-name="Group 2828" transform="translate(0 49.843)">
      <g id="Group_2827" data-name="Group 2827" transform="translate(0 0)">
        <path id="Path_8607" data-name="Path 8607" d="M401.962,273.32h1.858a4.832,4.832,0,0,0-.293,1.661V282a2.071,2.071,0,0,0,.119.694h-3.072a2.083,2.083,0,0,1-2.081-2.081v-3.828A3.472,3.472,0,0,1,401.962,273.32Z" transform="translate(-398.494 -273.32)" fill="#fff"/>
      </g>
    </g>
    <g id="Group_2830" data-name="Group 2830" transform="translate(18.7 49.843)">
      <g id="Group_2829" data-name="Group 2829" transform="translate(0 0)">
        <path id="Path_8608" data-name="Path 8608" d="M.293,274.982A4.833,4.833,0,0,0,0,273.321H1.858a3.472,3.472,0,0,1,3.468,3.468v3.828A2.083,2.083,0,0,1,3.245,282.7H.174A2.072,2.072,0,0,0,.293,282Z" transform="translate(0 -273.321)" fill="#fff"/>
      </g>
    </g>
    <g id="Group_2832" data-name="Group 2832" transform="translate(6.421 48.036)">
      <g id="Group_2831" data-name="Group 2831" transform="translate(0 0)">
        <path id="Path_8609" data-name="Path 8609" d="M140.3,234.815h4.248a3.472,3.472,0,0,1,3.468,3.468v7.022a.694.694,0,0,1-.694.694h-9.8a.694.694,0,0,1-.694-.694v-7.022A3.472,3.472,0,0,1,140.3,234.815Z" transform="translate(-136.829 -234.815)" fill="#fff"/>
      </g>
    </g>
    <g id="Group_2834" data-name="Group 2834" transform="translate(7.842 38.84)">
      <g id="Group_2833" data-name="Group 2833" transform="translate(0 0)">
        <path id="Path_8610" data-name="Path 8610" d="M171.285,38.84a4.17,4.17,0,1,1-4.171,4.171A4.176,4.176,0,0,1,171.285,38.84Z" transform="translate(-167.114 -38.84)" fill="#fff"/>
      </g>
    </g>
    <g id="Group_2836" data-name="Group 2836" transform="translate(16.218 42.728)">
      <g id="Group_2835" data-name="Group 2835" transform="translate(0 0)">
        <path id="Path_8611" data-name="Path 8611" d="M36.562,121.689a3.118,3.118,0,1,1-3.119,3.119A3.123,3.123,0,0,1,36.562,121.689Z" transform="translate(-33.443 -121.689)" fill="#fff"/>
      </g>
    </g>
    <g id="Group_2838" data-name="Group 2838" transform="translate(1.569 42.728)">
      <g id="Group_2837" data-name="Group 2837" transform="translate(0 0)">
        <path id="Path_8612" data-name="Path 8612" d="M348.726,121.689a3.119,3.119,0,1,1-3.119,3.119A3.123,3.123,0,0,1,348.726,121.689Z" transform="translate(-345.607 -121.689)" fill="#fff"/>
      </g>
    </g>
  </g>
</svg>
