<svg xmlns="http://www.w3.org/2000/svg" width="18" height="15.269" viewBox="0 0 18 15.269">
  <g id="group" transform="translate(0 -38.84)">
    <g id="Group_2828" data-name="Group 2828" transform="translate(0 47.083)">
      <g id="Group_2827" data-name="Group 2827" transform="translate(0 0)">
        <path id="Path_8607" data-name="Path 8607" d="M401.092,273.32h1.392a3.621,3.621,0,0,0-.219,1.245v5.261a1.551,1.551,0,0,0,.089.52h-2.3a1.561,1.561,0,0,1-1.559-1.559v-2.868A2.6,2.6,0,0,1,401.092,273.32Z" transform="translate(-398.494 -273.32)" fill="#fff"/>
      </g>
    </g>
    <g id="Group_2830" data-name="Group 2830" transform="translate(14.01 47.084)">
      <g id="Group_2829" data-name="Group 2829" transform="translate(0 0)">
        <path id="Path_8608" data-name="Path 8608" d="M.219,274.566A3.621,3.621,0,0,0,0,273.321H1.392a2.6,2.6,0,0,1,2.6,2.6v2.868a1.561,1.561,0,0,1-1.559,1.559H.13a1.552,1.552,0,0,0,.089-.52Z" transform="translate(0 -273.321)" fill="#fff"/>
      </g>
    </g>
    <g id="Group_2832" data-name="Group 2832" transform="translate(4.81 45.73)">
      <g id="Group_2831" data-name="Group 2831" transform="translate(0 0)">
        <path id="Path_8609" data-name="Path 8609" d="M139.427,234.815h3.182a2.6,2.6,0,0,1,2.6,2.6v5.261a.52.52,0,0,1-.52.52h-7.34a.52.52,0,0,1-.52-.52v-5.261A2.6,2.6,0,0,1,139.427,234.815Z" transform="translate(-136.829 -234.815)" fill="#fff"/>
      </g>
    </g>
    <g id="Group_2834" data-name="Group 2834" transform="translate(5.875 38.84)">
      <g id="Group_2833" data-name="Group 2833" transform="translate(0 0)">
        <path id="Path_8610" data-name="Path 8610" d="M170.239,38.84a3.124,3.124,0,1,1-3.125,3.125A3.128,3.128,0,0,1,170.239,38.84Z" transform="translate(-167.114 -38.84)" fill="#fff"/>
      </g>
    </g>
    <g id="Group_2836" data-name="Group 2836" transform="translate(12.15 41.753)">
      <g id="Group_2835" data-name="Group 2835" transform="translate(0 0)">
        <path id="Path_8611" data-name="Path 8611" d="M35.78,121.689a2.336,2.336,0,1,1-2.337,2.337A2.34,2.34,0,0,1,35.78,121.689Z" transform="translate(-33.443 -121.689)" fill="#fff"/>
      </g>
    </g>
    <g id="Group_2838" data-name="Group 2838" transform="translate(1.176 41.753)">
      <g id="Group_2837" data-name="Group 2837" transform="translate(0 0)">
        <path id="Path_8612" data-name="Path 8612" d="M347.944,121.689a2.337,2.337,0,1,1-2.337,2.337A2.34,2.34,0,0,1,347.944,121.689Z" transform="translate(-345.607 -121.689)" fill="#fff"/>
      </g>
    </g>
  </g>
</svg>
