<svg xmlns="http://www.w3.org/2000/svg" width="53.84" height="53.823" viewBox="0 0 53.84 53.823">
  <g id="logo-ARGOS" transform="translate(-32.602 -7.234)">
    <g id="Group_3000" data-name="Group 3000" transform="translate(32.602 7.234)">
      <path id="Path_8639" data-name="Path 8639" d="M48.068,7.272c.174-.116.233.058.174.174C37.194,18.611,39.985,32.973,49.928,39.66c.116,3.256,1.686,4.012,2.617,4.594.174-.872,1.919-1.163,2.21-3.372.581-4.361.7-9.245,2.035-12.559-2.268-.756-4.07-2.849-2.849-4.942,1.686,2.151,3.605,1.279,5.582,1.337V60.3c-1.454-.116-3.663-.174-4.768-2.326a5.623,5.623,0,0,1-2.035,1.8c.407.233.64.523.64.7-.058.174-.291.291-.64.174-.872-.93-1.744-.581-2.093.291L49.87,61v-.116l.291-.116a1.294,1.294,0,0,1,1.744-1.337c.233.058.349-.116.291-.291C38.706,55.126,31.9,42.8,32.659,30.705c0-.116.116-.174.116-.291a22.116,22.116,0,0,1,.349-3.372c0-.058.058,0,.058-.058a17.083,17.083,0,0,1,.872-3.605c.058-.058.116-.058.174-.116.523-1.454.7-3.024,1.686-4.245.058-.058.523-.291.581-.349.7-1.279.988-2.907,2.558-4.3.116-.116,1.4-.814,1.512-.93,2.442-2.733,3.954-4.361,7.5-6.163Z" transform="translate(-32.602 -7.234)" fill="#1c7ab0" fill-rule="evenodd"/>
      <path id="Path_8640" data-name="Path 8640" d="M60.356,65.776c-1.4-.988-2.558-3.663-2.675-6.454A35.8,35.8,0,0,1,52.1,53.158V53.1l.058.058c1.8,2.21,3.721,4.477,5.873,5.756a6.1,6.1,0,0,0,2.384,5.349l-.058,1.512Z" transform="translate(-40.762 -26.431)" fill="#fefefe" fill-rule="evenodd"/>
      <path id="Path_8641" data-name="Path 8641" d="M61.233,64.116c.7,2.965.93,5.291,3.024,7.152v.756C62.8,70.745,61.349,68.07,61,64l.233.116Z" transform="translate(-44.488 -30.993)" fill="#fefefe" fill-rule="evenodd"/>
      <path id="Path_8642" data-name="Path 8642" d="M34.773,43.893c.872-.174,1.861,1.919,3.256,3.663,1.279,1.628,2.675,2.907,2.733,3.14,0,.581-1.861-.64-3.605-2.617C35.936,46.567,34.482,45.114,34.773,43.893Z" transform="translate(-33.495 -22.573)" fill="#fefefe" fill-rule="evenodd"/>
      <path id="Path_8643" data-name="Path 8643" d="M34.4,48.777c.7-.291,1.919,1.454,3.372,2.791,1.4,1.279,2.733,2.21,2.849,2.384.116.523-1.744-.291-3.547-1.8-1.337-1.163-2.791-2.21-2.675-3.372Z" transform="translate(-33.35 -24.608)" fill="#fefefe" fill-rule="evenodd"/>
      <path id="Path_8644" data-name="Path 8644" d="M34.8,52.873c.64-.291,1.8,1.163,3.256,2.268,1.337,1.047,2.617,1.744,2.733,1.919.116.465-1.57-.116-3.314-1.337-1.279-.988-2.675-1.8-2.675-2.849Z" transform="translate(-33.522 -26.32)" fill="#fefefe" fill-rule="evenodd"/>
      <path id="Path_8645" data-name="Path 8645" d="M35.1,57.035c.523-.407,1.8.64,3.256,1.4,1.337.64,2.675,1.047,2.791,1.163.174.407-1.454.174-3.14-.581-1.337-.581-2.733-1.047-2.907-1.977Z" transform="translate(-33.648 -28.04)" fill="#fefefe" fill-rule="evenodd"/>
      <path id="Path_8646" data-name="Path 8646" d="M35.1,59.728c.465-.407,1.8.523,3.256,1.1,1.4.523,2.675.814,2.791.93.233.349-1.4.291-3.14-.349C36.728,60.949,35.333,60.658,35.1,59.728Z" transform="translate(-33.648 -29.163)" fill="#fefefe" fill-rule="evenodd"/>
      <path id="Path_8647" data-name="Path 8647" d="M36,62.711c.349-.407,1.628.291,3.024.7,1.279.349,2.442.523,2.558.581.233.291-1.221.349-2.791-.058-1.279-.233-2.5-.407-2.791-1.221Z" transform="translate(-34.024 -30.402)" fill="#fefefe" fill-rule="evenodd"/>
      <path id="Path_8648" data-name="Path 8648" d="M36.5,64.9c.349-.407,1.628.174,3.024.407,1.279.233,2.442.291,2.558.349.233.233-1.163.407-2.733.174C38.07,65.655,36.849,65.6,36.5,64.9Z" transform="translate(-34.234 -31.31)" fill="#fefefe" fill-rule="evenodd"/>
      <path id="Path_8649" data-name="Path 8649" d="M36.9,66.784c.291-.407,1.628.058,3.024.291,1.279.174,2.442.174,2.558.233.233.233-1.1.465-2.733.291C38.528,67.424,37.249,67.424,36.9,66.784Z" transform="translate(-34.401 -32.091)" fill="#fefefe" fill-rule="evenodd"/>
      <path id="Path_8650" data-name="Path 8650" d="M37.6,68.7c.291-.349,1.628.058,3.024.174,1.279.116,2.442.116,2.558.174.233.174-1.1.407-2.733.233C39.228,69.282,38.007,69.224,37.6,68.7Z" transform="translate(-34.694 -32.902)" fill="#fefefe" fill-rule="evenodd"/>
      <path id="Path_8651" data-name="Path 8651" d="M38.5,70.778c.291-.349,1.57-.058,2.849,0,1.221.058,2.326-.058,2.442,0,.233.174-1.047.407-2.558.407C40.07,71.127,38.907,71.244,38.5,70.778Z" transform="translate(-35.071 -33.759)" fill="#fefefe" fill-rule="evenodd"/>
      <path id="Path_8652" data-name="Path 8652" d="M39.6,72.617c.233-.349,1.57-.233,2.849-.291,1.221-.058,2.268-.291,2.442-.233.291.116-.988.523-2.5.64-1.163.116-2.384.291-2.791-.116Z" transform="translate(-35.531 -34.377)" fill="#fefefe" fill-rule="evenodd"/>
      <path id="Path_8653" data-name="Path 8653" d="M40.2,74.23c.233-.349,1.512-.349,2.849-.523,1.221-.174,2.268-.407,2.384-.407.291.116-.93.581-2.442.872C41.828,74.347,40.665,74.579,40.2,74.23Z" transform="translate(-35.782 -34.885)" fill="#fefefe" fill-rule="evenodd"/>
      <path id="Path_8654" data-name="Path 8654" d="M41.7,75.547c.174-.349,1.4-.349,2.617-.581,1.1-.174,2.093-.465,2.21-.465.291.116-.872.581-2.268.872C43.212,75.6,42.165,75.9,41.7,75.547Z" transform="translate(-36.41 -35.388)" fill="#fefefe" fill-rule="evenodd"/>
      <path id="Path_8655" data-name="Path 8655" d="M42.6,77.058c.174-.349,1.337-.407,2.442-.64,1.047-.233,1.977-.581,2.093-.523.233.116-.814.64-2.093.93C44.054,77.058,43.065,77.349,42.6,77.058Z" transform="translate(-36.787 -35.969)" fill="#fefefe" fill-rule="evenodd"/>
      <path id="Path_8656" data-name="Path 8656" d="M43.7,78.5c.116-.349,1.221-.465,2.268-.756.988-.291,1.8-.64,1.919-.64.233.058-.7.64-1.919,1.047C45.037,78.437,44.107,78.844,43.7,78.5Z" transform="translate(-37.247 -36.476)" fill="#fefefe" fill-rule="evenodd"/>
      <path id="Path_8657" data-name="Path 8657" d="M44.8,79.77c.116-.349,1.163-.523,2.151-.872.93-.349,1.744-.7,1.8-.7.233.058-.64.64-1.8,1.1-.872.291-1.744.7-2.151.465Z" transform="translate(-37.708 -36.936)" fill="#fefefe" fill-rule="evenodd"/>
      <path id="Path_8658" data-name="Path 8658" d="M45.8,80.9c.116-.349,1.1-.581,2.093-.988.93-.349,1.686-.814,1.8-.814.233.058-.64.7-1.744,1.163C47.079,80.67,46.207,81.135,45.8,80.9Z" transform="translate(-38.126 -37.313)" fill="#fefefe" fill-rule="evenodd"/>
      <path id="Path_8659" data-name="Path 8659" d="M46.8,82.019c.058-.349,1.047-.581,1.977-1.047.872-.407,1.57-.872,1.686-.872.233.058-.581.7-1.628,1.221C48.021,81.786,47.265,82.251,46.8,82.019Z" transform="translate(-38.545 -37.732)" fill="#fefefe" fill-rule="evenodd"/>
      <path id="Path_8660" data-name="Path 8660" d="M47.6,83.11c.058-.349,1.047-.7,1.977-1.221.872-.465,1.57-.988,1.686-.988.233,0-.523.756-1.628,1.4C48.879,82.761,48.065,83.284,47.6,83.11Z" transform="translate(-38.879 -38.066)" fill="#fefefe" fill-rule="evenodd"/>
      <path id="Path_8661" data-name="Path 8661" d="M48.8,83.968c.058-.349.988-.7,1.861-1.221.814-.465,1.454-.988,1.57-1.047.233,0-.465.756-1.454,1.4-.814.465-1.512,1.047-1.977.872Z" transform="translate(-39.382 -38.401)" fill="#fefefe" fill-rule="evenodd"/>
      <path id="Path_8662" data-name="Path 8662" d="M49.6,84.884c0-.349.93-.756,1.8-1.279a14.529,14.529,0,0,0,1.512-1.1c.233,0-.465.756-1.454,1.454C50.763,84.419,50.065,85,49.6,84.884Z" transform="translate(-39.717 -38.736)" fill="#fefefe" fill-rule="evenodd"/>
      <path id="Path_8663" data-name="Path 8663" d="M50.8,85.584c0-.349.872-.756,1.628-1.279.7-.523,1.279-1.047,1.337-1.1.233,0-.407.756-1.221,1.454-.64.465-1.279,1.047-1.744.93Z" transform="translate(-40.219 -39.029)" fill="#fefefe" fill-rule="evenodd"/>
      <path id="Path_8664" data-name="Path 8664" d="M51.9,86.317c0-.349.814-.814,1.512-1.4.64-.581,1.163-1.163,1.279-1.221.233,0-.349.756-1.163,1.512-.581.581-1.163,1.163-1.628,1.1Z" transform="translate(-40.679 -39.238)" fill="#fefefe" fill-rule="evenodd"/>
      <path id="Path_8665" data-name="Path 8665" d="M52.8,87.175c0-.349.756-.814,1.454-1.454.64-.581,1.163-1.163,1.279-1.221.233,0-.291.756-1.1,1.512-.64.581-1.163,1.221-1.628,1.163Z" transform="translate(-41.056 -39.573)" fill="#fefefe" fill-rule="evenodd"/>
      <path id="Path_8666" data-name="Path 8666" d="M54,87.989c-.058-.349.756-.872,1.4-1.512s1.1-1.221,1.163-1.279c.233-.058-.291.814-1.047,1.57-.523.581-1.047,1.279-1.512,1.221Z" transform="translate(-41.556 -39.864)" fill="#fefefe" fill-rule="evenodd"/>
      <path id="Path_8667" data-name="Path 8667" d="M55.5,88.747c-.058-.291.64-.872,1.221-1.57A8.958,8.958,0,0,1,57.765,85.9c.174-.058-.174.756-.872,1.57C56.37,88.107,55.9,88.747,55.5,88.747Z" transform="translate(-42.183 -40.157)" fill="#fefefe" fill-rule="evenodd"/>
      <path id="Path_8668" data-name="Path 8668" d="M56.7,89.489c-.058-.291.581-.872,1.1-1.512s.872-1.221.93-1.279c.174-.058-.174.756-.756,1.57C57.511,88.849,57.1,89.489,56.7,89.489Z" transform="translate(-42.686 -40.492)" fill="#fefefe" fill-rule="evenodd"/>
      <path id="Path_8669" data-name="Path 8669" d="M57.69,90.005c-.116-.291.523-.872,1.047-1.57.465-.64.814-1.279.872-1.337.174-.058-.116.756-.7,1.57-.407.64-.814,1.337-1.221,1.337Z" transform="translate(-43.097 -40.659)" fill="#fefefe" fill-rule="evenodd"/>
      <path id="Path_8670" data-name="Path 8670" d="M58.689,90.621c-.116-.291.465-.93.93-1.628.407-.64.756-1.337.814-1.4.174-.058-.116.756-.64,1.628-.349.64-.7,1.337-1.1,1.4Z" transform="translate(-43.514 -40.868)" fill="#fefefe" fill-rule="evenodd"/>
      <path id="Path_8671" data-name="Path 8671" d="M59.788,91.205c-.116-.291.407-.872.814-1.57.349-.64.64-1.279.7-1.337.174-.058-.058.756-.523,1.57-.291.64-.581,1.279-.988,1.337Z" transform="translate(-43.974 -41.161)" fill="#fefefe" fill-rule="evenodd"/>
      <path id="Path_8672" data-name="Path 8672" d="M60.787,91.616c-.116-.233.349-.93.7-1.628s.581-1.337.64-1.4c.174-.116,0,.756-.407,1.57-.291.7-.523,1.4-.93,1.454Z" transform="translate(-44.391 -41.282)" fill="#fefefe" fill-rule="evenodd"/>
      <path id="Path_8673" data-name="Path 8673" d="M61.887,92.274c-.116-.233.349-.93.64-1.686.291-.7.523-1.337.581-1.4.174-.116,0,.756-.349,1.628-.233.64-.465,1.337-.872,1.454Z" transform="translate(-44.851 -41.533)" fill="#fefefe" fill-rule="evenodd"/>
      <path id="Path_8674" data-name="Path 8674" d="M63.073,92.732c-.174-.233.291-.93.581-1.686a8.379,8.379,0,0,0,.465-1.454c.174-.116.058.7-.233,1.628-.291.7-.465,1.4-.814,1.512Z" transform="translate(-45.339 -41.7)" fill="#fefefe" fill-rule="evenodd"/>
      <path id="Path_8675" data-name="Path 8675" d="M64.085,93.174c-.116-.233.291-.93.64-1.686.291-.7.465-1.337.523-1.4.174-.116.058.756-.291,1.628-.291.64-.523,1.337-.872,1.454Z" transform="translate(-45.771 -41.909)" fill="#fefefe" fill-rule="evenodd"/>
      <path id="Path_8676" data-name="Path 8676" d="M65.285,93.874c-.116-.233.291-.93.64-1.686.291-.7.465-1.337.523-1.4.174-.116.058.756-.291,1.628-.291.64-.523,1.337-.872,1.454Z" transform="translate(-46.273 -42.202)" fill="#fefefe" fill-rule="evenodd"/>
      <path id="Path_8677" data-name="Path 8677" d="M66.385,93.856c-.116-.233.291-.756.64-1.4.291-.581.465-1.1.523-1.163.116-.058,0,.64-.349,1.337-.233.581-.465,1.163-.814,1.221Z" transform="translate(-46.733 -42.417)" fill="#fefefe" fill-rule="evenodd"/>
      <path id="Path_8678" data-name="Path 8678" d="M48.338,51.51a2.45,2.45,0,0,1,.814,2.035c-.233.407-.93.233-1.57-.465a2.45,2.45,0,0,1-.814-2.035C47,50.637,47.64,50.812,48.338,51.51Z" transform="translate(-38.512 -25.48)" fill="#fefefe" fill-rule="evenodd"/>
      <path id="Path_8679" data-name="Path 8679" d="M47.619,55.518a2.126,2.126,0,0,1,.756,1.686c-.174.349-.756.233-1.337-.349a2.126,2.126,0,0,1-.756-1.686C46.456,54.82,47.038,54.995,47.619,55.518Z" transform="translate(-38.317 -27.221)" fill="#fefefe" fill-rule="evenodd"/>
      <path id="Path_8680" data-name="Path 8680" d="M47.376,59.48c.64.407,1.1.988,1.047,1.337s-.64.349-1.279,0c-.64-.407-1.1-.988-1.047-1.337C46.155,59.073,46.736,59.073,47.376,59.48Z" transform="translate(-38.248 -28.974)" fill="#fefefe" fill-rule="evenodd"/>
      <path id="Path_8681" data-name="Path 8681" d="M47.643,63c.581.233,1.047.7,1.047,1.047s-.465.407-1.047.116-1.047-.7-1.047-1.047C46.539,62.822,47.062,62.764,47.643,63Z" transform="translate(-38.458 -30.513)" fill="#fefefe" fill-rule="evenodd"/>
      <path id="Path_8682" data-name="Path 8682" d="M48.9,66c.581,0,1.1.174,1.221.465s-.233.523-.814.523-1.1-.174-1.221-.465c-.116-.233.291-.465.814-.523Z" transform="translate(-39.074 -31.83)" fill="#fefefe" fill-rule="evenodd"/>
      <path id="Path_8683" data-name="Path 8683" d="M49.538,68.485c.523-.058,1.1,0,1.279.233s-.174.465-.756.581c-.523.058-1.1,0-1.279-.233C48.666,68.834,48.956,68.543,49.538,68.485Z" transform="translate(-39.364 -32.861)" fill="#fefefe" fill-rule="evenodd"/>
      <path id="Path_8684" data-name="Path 8684" d="M50.721,71.168c.523-.116,1.047,0,1.163.291.116.233-.174.523-.64.581-.523.116-1.047,0-1.163-.291C49.965,71.517,50.256,71.226,50.721,71.168Z" transform="translate(-39.907 -33.974)" fill="#fefefe" fill-rule="evenodd"/>
      <path id="Path_8685" data-name="Path 8685" d="M52.2,73.268c.581-.116,1.221,0,1.4.291.174.233-.174.523-.814.581-.581.116-1.221,0-1.4-.291C51.268,73.617,51.617,73.326,52.2,73.268Z" transform="translate(-40.454 -34.853)" fill="#fefefe" fill-rule="evenodd"/>
      <path id="Path_8686" data-name="Path 8686" d="M53.165,75.568c.523-.116,1.1,0,1.221.291.174.233-.174.523-.7.581-.523.116-1.1,0-1.221-.291-.174-.233.174-.523.7-.581Z" transform="translate(-40.898 -35.816)" fill="#fefefe" fill-rule="evenodd"/>
      <path id="Path_8687" data-name="Path 8687" d="M54.459,77.533a1.365,1.365,0,0,1,1.1-.174c.174.174,0,.465-.407.7a1.365,1.365,0,0,1-1.1.174c-.174-.174,0-.465.407-.7Z" transform="translate(-41.552 -36.56)" fill="#fefefe" fill-rule="evenodd"/>
      <path id="Path_8688" data-name="Path 8688" d="M55.745,79.123c.349-.291.756-.465.988-.349.174.116.116.465-.233.756s-.756.465-.988.349c-.233-.058-.116-.407.233-.756Z" transform="translate(-42.141 -37.161)" fill="#fefefe" fill-rule="evenodd"/>
      <path id="Path_8689" data-name="Path 8689" d="M57.274,80.643c.291-.349.756-.581.988-.465s.174.465-.174.814c-.291.349-.756.581-.988.465S56.925,80.992,57.274,80.643Z" transform="translate(-42.797 -37.752)" fill="#fefefe" fill-rule="evenodd"/>
      <path id="Path_8690" data-name="Path 8690" d="M58.974,82.234c.233-.407.64-.7.872-.64s.233.407,0,.814-.64.7-.872.64S58.742,82.641,58.974,82.234Z" transform="translate(-43.567 -38.354)" fill="#fefefe" fill-rule="evenodd"/>
      <path id="Path_8691" data-name="Path 8691" d="M60.543,83.292c.233-.465.64-.756.872-.7s.233.465,0,.872c-.233.465-.64.756-.872.7C60.252,84.106,60.252,83.758,60.543,83.292Z" transform="translate(-44.205 -38.773)" fill="#fefefe" fill-rule="evenodd"/>
      <path id="Path_8692" data-name="Path 8692" d="M61.974,84.493c.233-.407.64-.756.93-.7.233.058.233.407,0,.872-.233.407-.64.756-.93.7C61.742,85.307,61.742,84.9,61.974,84.493Z" transform="translate(-44.823 -39.276)" fill="#fefefe" fill-rule="evenodd"/>
      <path id="Path_8693" data-name="Path 8693" d="M63.274,85.793c.233-.407.64-.756.872-.7s.233.407,0,.872c-.233.407-.64.756-.872.7S63.042,86.2,63.274,85.793Z" transform="translate(-45.367 -39.82)" fill="#fefefe" fill-rule="evenodd"/>
      <path id="Path_8694" data-name="Path 8694" d="M65.06,86.468c.116-.465.407-.872.64-.872.233-.058.349.291.233.756s-.407.872-.64.872C65,87.282,64.943,86.933,65.06,86.468Z" transform="translate(-46.164 -40.029)" fill="#fefefe" fill-rule="evenodd"/>
      <path id="Path_8695" data-name="Path 8695" d="M66.589,87.326a1.142,1.142,0,0,1,.581-.93c.233-.058.407.291.291.756a1.142,1.142,0,0,1-.581.93C66.647,88.14,66.531,87.791,66.589,87.326Z" transform="translate(-46.821 -40.364)" fill="#fefefe" fill-rule="evenodd"/>
      <path id="Path_8696" data-name="Path 8696" d="M68.2,88.083c0-.465.233-.93.465-.988s.407.233.407.7-.233.93-.465.988C68.374,88.9,68.2,88.606,68.2,88.083Z" transform="translate(-47.501 -40.656)" fill="#fefefe" fill-rule="evenodd"/>
      <path id="Path_8697" data-name="Path 8697" d="M49.188,48.578a3.39,3.39,0,0,1,.872,1.8c-.058.407-.465.291-.988-.349a3.39,3.39,0,0,1-.872-1.8C48.258,47.822,48.665,47.938,49.188,48.578Z" transform="translate(-39.131 -24.293)" fill="#fefefe" fill-rule="evenodd"/>
      <path id="Path_8698" data-name="Path 8698" d="M52.172,54.851a2.5,2.5,0,0,1,.988,1.4c.058.349-.349.291-.872-.116a2.5,2.5,0,0,1-.988-1.4C51.3,54.386,51.649,54.444,52.172,54.851Z" transform="translate(-40.428 -27.019)" fill="#fefefe" fill-rule="evenodd"/>
      <path id="Path_8699" data-name="Path 8699" d="M51.172,57.251a2.5,2.5,0,0,1,.988,1.4c.058.349-.349.291-.872-.116a2.5,2.5,0,0,1-.988-1.4c0-.349.407-.291.872.116Z" transform="translate(-40.01 -28.024)" fill="#fefefe" fill-rule="evenodd"/>
      <path id="Path_8700" data-name="Path 8700" d="M50.668,60.2a2.908,2.908,0,0,1,1.163,1.279c.058.349-.291.349-.872,0A2.908,2.908,0,0,1,49.8,60.2C49.738,59.789,50.145,59.847,50.668,60.2Z" transform="translate(-39.796 -29.282)" fill="#fefefe" fill-rule="evenodd"/>
      <path id="Path_8701" data-name="Path 8701" d="M51.2,63.5a3.108,3.108,0,0,1,1.1,1.279c.058.349-.291.349-.814,0a3.108,3.108,0,0,1-1.1-1.279C50.269,63.089,50.676,63.147,51.2,63.5Z" transform="translate(-40.037 -30.663)" fill="#fefefe" fill-rule="evenodd"/>
      <path id="Path_8702" data-name="Path 8702" d="M53.109,67.374c.407.233.756.64.7.872s-.407.233-.814,0-.756-.64-.7-.872C52.3,67.142,52.7,67.142,53.109,67.374Z" transform="translate(-40.842 -32.332)" fill="#fefefe" fill-rule="evenodd"/>
      <path id="Path_8703" data-name="Path 8703" d="M53.051,69.6c.465,0,.93.174.988.407s-.233.407-.756.407c-.465,0-.93-.174-.988-.407s.291-.407.756-.407Z" transform="translate(-40.842 -33.337)" fill="#fefefe" fill-rule="evenodd"/>
      <path id="Path_8704" data-name="Path 8704" d="M54.259,71.6a1.064,1.064,0,0,1,.93-.058c.174.174-.058.407-.407.581a1.064,1.064,0,0,1-.93.058c-.174-.174,0-.407.407-.581Z" transform="translate(-41.468 -34.116)" fill="#fefefe" fill-rule="evenodd"/>
      <path id="Path_8705" data-name="Path 8705" d="M55.617,73.914c.349-.233.756-.349.93-.174s0,.465-.349.756c-.349.233-.756.349-.93.174C55.152,74.5,55.269,74.147,55.617,73.914Z" transform="translate(-42.071 -35.034)" fill="#fefefe" fill-rule="evenodd"/>
      <path id="Path_8706" data-name="Path 8706" d="M56.892,75.514c.349-.233.756-.349.93-.174s0,.465-.349.756c-.349.233-.756.349-.93.174S56.485,75.747,56.892,75.514Z" transform="translate(-42.59 -35.704)" fill="#fefefe" fill-rule="evenodd"/>
      <path id="Path_8707" data-name="Path 8707" d="M58.114,77.359c.233-.291.581-.407.756-.291s.116.407-.174.7c-.233.291-.581.407-.756.291S57.881,77.649,58.114,77.359Z" transform="translate(-43.172 -36.444)" fill="#fefefe" fill-rule="evenodd"/>
      <path id="Path_8708" data-name="Path 8708" d="M59.633,78.659c.233-.291.581-.407.756-.291s.116.407-.174.7c-.233.291-.581.407-.756.291C59.342,79.24,59.4,78.949,59.633,78.659Z" transform="translate(-43.818 -36.988)" fill="#fefefe" fill-rule="evenodd"/>
      <path id="Path_8709" data-name="Path 8709" d="M61.033,79.859c.233-.291.581-.407.756-.291s.116.407-.174.7c-.233.291-.581.407-.756.291C60.742,80.44,60.8,80.149,61.033,79.859Z" transform="translate(-44.404 -37.49)" fill="#fefefe" fill-rule="evenodd"/>
      <path id="Path_8710" data-name="Path 8710" d="M62.3,81.138a.621.621,0,0,1,.64-.349c.174.058.116.349-.058.64a.621.621,0,0,1-.64.349C62.125,81.72,62.125,81.429,62.3,81.138Z" transform="translate(-44.974 -38.014)" fill="#fefefe" fill-rule="evenodd"/>
      <path id="Path_8711" data-name="Path 8711" d="M63.442,82.159c.116-.291.407-.523.581-.465s.174.349.058.64-.407.523-.581.465S63.325,82.508,63.442,82.159Z" transform="translate(-45.476 -38.395)" fill="#fefefe" fill-rule="evenodd"/>
      <path id="Path_8712" data-name="Path 8712" d="M64.742,83.159c.116-.291.407-.523.581-.465s.174.349.058.64-.407.523-.581.465S64.625,83.449,64.742,83.159Z" transform="translate(-46.02 -38.813)" fill="#fefefe" fill-rule="evenodd"/>
      <path id="Path_8713" data-name="Path 8713" d="M66.084,84.081c.058-.291.233-.581.407-.581s.291.233.174.581c-.058.291-.233.581-.407.581C66.084,84.6,66.026,84.372,66.084,84.081Z" transform="translate(-46.607 -39.155)" fill="#fefefe" fill-rule="evenodd"/>
      <path id="Path_8714" data-name="Path 8714" d="M67.6,84.833c0-.291.116-.64.291-.64.174-.058.349.174.349.523,0,.291-.116.64-.291.64S67.6,85.182,67.6,84.833Z" transform="translate(-47.25 -39.441)" fill="#fefefe" fill-rule="evenodd"/>
      <path id="Path_8715" data-name="Path 8715" d="M68,82.865c0-.233.116-.465.233-.465s.233.174.233.407-.116.465-.233.465S68,83.1,68,82.865Z" transform="translate(-47.418 -38.694)" fill="#fefefe" fill-rule="evenodd"/>
      <path id="Path_8716" data-name="Path 8716" d="M66.884,82.307c.058-.233.174-.407.291-.407s.174.174.116.407-.174.407-.291.407C66.884,82.772,66.825,82.54,66.884,82.307Z" transform="translate(-46.941 -38.485)" fill="#fefefe" fill-rule="evenodd"/>
      <path id="Path_8717" data-name="Path 8717" d="M66.037,81.58c.116-.233.291-.349.407-.291s.116.233,0,.465-.291.349-.407.291S65.921,81.754,66.037,81.58Z" transform="translate(-46.56 -38.223)" fill="#fefefe" fill-rule="evenodd"/>
      <path id="Path_8718" data-name="Path 8718" d="M64.837,80.88c.116-.233.291-.349.407-.291s.116.233,0,.465-.291.349-.407.291S64.721,81.054,64.837,80.88Z" transform="translate(-46.057 -37.93)" fill="#fefefe" fill-rule="evenodd"/>
      <path id="Path_8719" data-name="Path 8719" d="M63.973,80.041c.174-.174.349-.291.465-.174.116.058.058.233-.116.407s-.349.291-.465.174C63.74,80.39,63.8,80.215,63.973,80.041Z" transform="translate(-45.658 -37.614)" fill="#fefefe" fill-rule="evenodd"/>
      <path id="Path_8720" data-name="Path 8720" d="M63.091,79.241c.174-.174.349-.291.465-.174.116.058.058.233-.116.407s-.349.291-.465.174C62.917,79.59,62.917,79.415,63.091,79.241Z" transform="translate(-45.3 -37.279)" fill="#fefefe" fill-rule="evenodd"/>
      <path id="Path_8721" data-name="Path 8721" d="M61.773,77.9c.174-.233.465-.349.581-.233.116.058.058.349-.116.523-.174.233-.465.349-.581.233C61.54,78.365,61.6,78.132,61.773,77.9Z" transform="translate(-44.737 -36.694)" fill="#fefefe" fill-rule="evenodd"/>
      <path id="Path_8722" data-name="Path 8722" d="M60.641,76.517a.675.675,0,0,1,.64-.233c.116.116.058.349-.174.581a.675.675,0,0,1-.64.233c-.116-.116,0-.349.174-.581Z" transform="translate(-44.245 -36.126)" fill="#fefefe" fill-rule="evenodd"/>
      <path id="Path_8723" data-name="Path 8723" d="M59.4,75.1c.233-.233.581-.349.756-.233s.058.407-.174.64-.581.349-.756.233S59.113,75.332,59.4,75.1Z" transform="translate(-43.706 -35.522)" fill="#fefefe" fill-rule="evenodd"/>
      <path id="Path_8724" data-name="Path 8724" d="M58.314,73.2c.233-.233.581-.349.756-.233s.058.407-.174.64-.581.349-.756.233S58.081,73.432,58.314,73.2Z" transform="translate(-43.256 -34.727)" fill="#fefefe" fill-rule="evenodd"/>
      <path id="Path_8725" data-name="Path 8725" d="M57.2,71.306c.349-.174.7-.174.756,0,.116.174-.058.407-.407.523-.349.174-.7.174-.756,0C56.734,71.713,56.908,71.48,57.2,71.306Z" transform="translate(-42.722 -33.996)" fill="#fefefe" fill-rule="evenodd"/>
      <path id="Path_8726" data-name="Path 8726" d="M56.392,69.2c.407,0,.814.174.814.407.058.233-.233.407-.7.407-.407,0-.814-.174-.814-.407-.058-.174.233-.349.7-.407Z" transform="translate(-42.264 -33.169)" fill="#fefefe" fill-rule="evenodd"/>
      <path id="Path_8727" data-name="Path 8727" d="M55.53,66.86c.465.116.872.349.872.64,0,.233-.407.349-.93.233-.465-.116-.872-.349-.872-.64S55.065,66.743,55.53,66.86Z" transform="translate(-41.809 -32.166)" fill="#fefefe" fill-rule="evenodd"/>
      <path id="Path_8728" data-name="Path 8728" d="M54.772,63.792c.523.116.93.407.93.756s-.349.523-.872.407-.93-.407-.93-.756C53.9,63.908,54.307,63.734,54.772,63.792Z" transform="translate(-41.516 -30.901)" fill="#fefefe" fill-rule="evenodd"/>
      <path id="Path_8729" data-name="Path 8729" d="M55.162,61.333c.465.407.756.93.523,1.1-.174.174-.756,0-1.221-.407s-.756-.93-.523-1.1C54.116,60.694,54.639,60.868,55.162,61.333Z" transform="translate(-41.499 -29.664)" fill="#fefefe" fill-rule="evenodd"/>
      <path id="Path_8730" data-name="Path 8730" d="M55.256,58.659c.407.407.581.872.407,1.047s-.7,0-1.1-.407-.581-.872-.407-1.047.7,0,1.1.407Z" transform="translate(-41.593 -28.559)" fill="#fefefe" fill-rule="evenodd"/>
      <path id="Path_8731" data-name="Path 8731" d="M58.556,61.764c.407.407.581.872.407,1.047s-.7,0-1.1-.407-.581-.872-.407-1.047.64.058,1.1.407Z" transform="translate(-42.975 -29.862)" fill="#fefefe" fill-rule="evenodd"/>
      <path id="Path_8732" data-name="Path 8732" d="M58.684,64.184c.523.116.872.349.814.581s-.523.291-.988.174c-.523-.116-.872-.349-.814-.581C57.7,64.184,58.161,64.126,58.684,64.184Z" transform="translate(-43.102 -31.061)" fill="#fefefe" fill-rule="evenodd"/>
      <path id="Path_8733" data-name="Path 8733" d="M58.684,65.989c.523.058.872.291.814.523s-.465.349-.988.233c-.523-.058-.872-.291-.814-.523C57.754,66.047,58.219,65.931,58.684,65.989Z" transform="translate(-43.102 -31.819)" fill="#fefefe" fill-rule="evenodd"/>
      <path id="Path_8734" data-name="Path 8734" d="M59.23,68c.465,0,.872.174.872.349,0,.233-.407.349-.93.407-.465,0-.872-.174-.872-.349C58.358,68.174,58.765,68,59.23,68Z" transform="translate(-43.358 -32.667)" fill="#fefefe" fill-rule="evenodd"/>
      <path id="Path_8735" data-name="Path 8735" d="M59.7,69.8c.407,0,.7.116.7.291s-.349.291-.7.291c-.407,0-.7-.116-.7-.291C59,69.974,59.349,69.8,59.7,69.8Z" transform="translate(-43.651 -33.421)" fill="#fefefe" fill-rule="evenodd"/>
      <path id="Path_8736" data-name="Path 8736" d="M60.276,71.456c.349-.116.7-.058.756.116s-.233.465-.581.581-.7.058-.756-.116C59.636,71.805,59.927,71.573,60.276,71.456Z" transform="translate(-43.938 -34.088)" fill="#fefefe" fill-rule="evenodd"/>
      <path id="Path_8737" data-name="Path 8737" d="M61.017,73.11c.349-.174.7-.174.756.058.058.174-.174.465-.523.64s-.7.174-.756-.058C60.435,73.576,60.668,73.285,61.017,73.11Z" transform="translate(-44.272 -34.754)" fill="#fefefe" fill-rule="evenodd"/>
      <path id="Path_8738" data-name="Path 8738" d="M62.023,74.482c.291-.174.581-.233.64-.058s-.116.407-.349.64c-.291.174-.581.233-.64.058-.116-.174.058-.465.349-.64Z" transform="translate(-44.755 -35.312)" fill="#fefefe" fill-rule="evenodd"/>
      <path id="Path_8739" data-name="Path 8739" d="M62.849,75.8c.233-.174.523-.174.581-.058s-.058.407-.349.523c-.233.174-.523.174-.581.058A.976.976,0,0,1,62.849,75.8Z" transform="translate(-45.116 -35.873)" fill="#fefefe" fill-rule="evenodd"/>
      <path id="Path_8740" data-name="Path 8740" d="M63.738,76.8c.233-.174.523-.174.581-.058s-.058.407-.349.523c-.233.174-.523.174-.581.058s.058-.349.349-.523Z" transform="translate(-45.482 -36.292)" fill="#fefefe" fill-rule="evenodd"/>
      <path id="Path_8741" data-name="Path 8741" d="M64.538,77.8c.233-.174.523-.174.581-.058s-.058.407-.349.523c-.233.174-.523.174-.581.058s.058-.349.349-.523Z" transform="translate(-45.817 -36.711)" fill="#fefefe" fill-rule="evenodd"/>
      <path id="Path_8742" data-name="Path 8742" d="M65.441,78.7c.174-.233.407-.349.523-.233s0,.407-.174.64-.407.349-.523.233C65.15,79.165,65.266,78.932,65.441,78.7Z" transform="translate(-46.254 -37.029)" fill="#fefefe" fill-rule="evenodd"/>
      <path id="Path_8743" data-name="Path 8743" d="M66.459,79.6c.174-.233.407-.349.523-.233s0,.407-.174.64-.407.349-.523.233A.766.766,0,0,1,66.459,79.6Z" transform="translate(-46.691 -37.406)" fill="#fefefe" fill-rule="evenodd"/>
      <path id="Path_8744" data-name="Path 8744" d="M35.969,38.394c1.1-.174,1.8,2.5,3.082,4.826,1.221,2.151,2.558,3.838,2.617,4.128-.116.756-2.151-.872-3.721-3.489-1.221-2.035-2.675-3.838-1.977-5.466Z" transform="translate(-33.936 -20.272)" fill="#fefefe" fill-rule="evenodd"/>
      <path id="Path_8745" data-name="Path 8745" d="M38.335,31.8c1.163,0,1.512,3.14,2.442,5.989.93,2.617,2.035,4.768,2.035,5.059-.233.814-2.093-1.4-3.372-4.652-.872-2.384-2.093-4.71-1.1-6.4Z" transform="translate(-34.848 -17.516)" fill="#fefefe" fill-rule="evenodd"/>
      <path id="Path_8746" data-name="Path 8746" d="M41.982,23.541c.058-.058.349-.116.349-.058,1.686,1.977.407,4.245.93,7.792.523,3.314,1.512,6.105,1.454,6.512-.349.93-1.977-2.733-2.965-6.4-.814-3.024-.93-6.163.233-7.85Z" transform="translate(-36.169 -14.025)" fill="#fefefe" fill-rule="evenodd"/>
      <path id="Path_8747" data-name="Path 8747" d="M46.937,15.368A11.72,11.72,0,0,1,52.984,8.1C44.32,17.171,46.007,24.962,47.4,30.428c-.523.756-1.454-3.2-1.744-6.977C45.425,20.311,45.89,18.915,46.937,15.368Z" transform="translate(-38.042 -7.596)" fill="#fefefe" fill-rule="evenodd"/>
      <path id="Path_8748" data-name="Path 8748" d="M71.516,93.1c.058,0,.116.291.116.7s-.058.7-.116.7-.116-.291-.116-.7S71.458,93.1,71.516,93.1Z" transform="translate(-48.841 -43.173)" fill="#fefefe" fill-rule="evenodd"/>
      <path id="Path_8749" data-name="Path 8749" d="M72.116,93.9c.058,0,.116.291.116.7s-.058.7-.116.7S72,95,72,94.6,72.058,93.9,72.116,93.9Z" transform="translate(-49.092 -43.507)" fill="#fefefe" fill-rule="evenodd"/>
      <path id="Path_8750" data-name="Path 8750" d="M72.916,94.3c.058,0,.116.291.116.7,0,.349-.058.7-.116.7S72.8,95.4,72.8,95,72.858,94.3,72.916,94.3Z" transform="translate(-49.427 -43.675)" fill="#fefefe" fill-rule="evenodd"/>
      <path id="Path_8751" data-name="Path 8751" d="M73.916,94.9c.058,0,.116.291.116.7,0,.349-.058.7-.116.7S73.8,96,73.8,95.6C73.8,95.249,73.8,94.9,73.916,94.9Z" transform="translate(-49.845 -43.926)" fill="#fefefe" fill-rule="evenodd"/>
      <path id="Path_8752" data-name="Path 8752" d="M74.716,95.2c.058,0,.116.291.116.7s-.058.7-.116.7-.116-.291-.116-.7S74.658,95.2,74.716,95.2Z" transform="translate(-50.18 -44.051)" fill="#fefefe" fill-rule="evenodd"/>
      <path id="Path_8753" data-name="Path 8753" d="M75.416,95.3c.058,0,.116.291.116.7,0,.349-.058.7-.116.7S75.3,96.4,75.3,96C75.3,95.649,75.358,95.3,75.416,95.3Z" transform="translate(-50.473 -44.093)" fill="#fefefe" fill-rule="evenodd"/>
      <path id="Path_8754" data-name="Path 8754" d="M76.216,95.7c.058,0,.116.291.116.7,0,.349-.058.7-.116.7s-.116-.291-.116-.7C76.158,95.991,76.158,95.7,76.216,95.7Z" transform="translate(-50.808 -44.261)" fill="#fefefe" fill-rule="evenodd"/>
      <path id="Path_8755" data-name="Path 8755" d="M77.016,95.8c.058,0,.116.291.116.7,0,.349-.058.7-.116.7s-.116-.291-.116-.7S76.958,95.8,77.016,95.8Z" transform="translate(-51.143 -44.303)" fill="#fefefe" fill-rule="evenodd"/>
      <path id="Path_8756" data-name="Path 8756" d="M77.916,96c.058,0,.116.291.116.7s-.058.7-.116.7-.116-.291-.116-.7S77.858,96,77.916,96Z" transform="translate(-51.519 -44.386)" fill="#fefefe" fill-rule="evenodd"/>
      <path id="Path_8757" data-name="Path 8757" d="M75.949,92.2c.174,0,.349.349.349.814s-.174.814-.349.814-.349-.349-.349-.814S75.774,92.2,75.949,92.2Z" transform="translate(-50.599 -42.796)" fill="#fefefe" fill-rule="evenodd"/>
      <path id="Path_8758" data-name="Path 8758" d="M74.191,91.7c.174,0,.291.349.291.756s-.116.756-.291.756-.291-.349-.291-.756S74.016,91.7,74.191,91.7Z" transform="translate(-49.887 -42.587)" fill="#fefefe" fill-rule="evenodd"/>
      <path id="Path_8759" data-name="Path 8759" d="M73.074,90.8c.116,0,.174.349.174.756s-.058.756-.174.756-.174-.349-.174-.756S72.958,90.8,73.074,90.8Z" transform="translate(-49.469 -42.21)" fill="#fefefe" fill-rule="evenodd"/>
      <path id="Path_8760" data-name="Path 8760" d="M71.916,90c.058,0,.116.349.116.756s-.058.756-.116.756-.116-.349-.116-.756S71.858,90,71.916,90Z" transform="translate(-49.008 -41.875)" fill="#fefefe" fill-rule="evenodd"/>
      <path id="Path_8761" data-name="Path 8761" d="M72.333,86.8c.116,0,.233.349.233.756s-.116.756-.233.756-.233-.349-.233-.756S72.216,86.8,72.333,86.8Z" transform="translate(-49.134 -40.536)" fill="#fefefe" fill-rule="evenodd"/>
      <path id="Path_8762" data-name="Path 8762" d="M73.683,87.4c.174,0,.291.349.291.756s-.116.756-.291.756-.291-.349-.291-.756C73.334,87.749,73.508,87.4,73.683,87.4Z" transform="translate(-49.67 -40.787)" fill="#fefefe" fill-rule="evenodd"/>
      <path id="Path_8763" data-name="Path 8763" d="M75.541,87.9c.233,0,.349.407.349.93s-.174.93-.349.93c-.233,0-.349-.407-.349-.93C75.134,88.365,75.308,87.9,75.541,87.9Z" transform="translate(-50.423 -40.996)" fill="#fefefe" fill-rule="evenodd"/>
      <path id="Path_8764" data-name="Path 8764" d="M71.074,86.2c.116,0,.174.349.174.756s-.058.756-.174.756-.174-.349-.174-.756S70.958,86.2,71.074,86.2Z" transform="translate(-48.632 -40.285)" fill="#fefefe" fill-rule="evenodd"/>
      <path id="Path_8765" data-name="Path 8765" d="M70.216,85.9c.058,0,.116.233.116.523s-.058.523-.116.523-.116-.233-.116-.523S70.158,85.9,70.216,85.9Z" transform="translate(-48.297 -40.159)" fill="#fefefe" fill-rule="evenodd"/>
      <path id="Path_8766" data-name="Path 8766" d="M71.241,81.8c.233,0,.349.465.349,1.1,0,.581-.174,1.1-.349,1.1-.233,0-.349-.465-.349-1.1C70.834,82.265,71.008,81.8,71.241,81.8Z" transform="translate(-48.623 -38.443)" fill="#fefefe" fill-rule="evenodd"/>
      <path id="Path_8767" data-name="Path 8767" d="M69.691,81.2c.174,0,.291.349.291.814s-.116.814-.291.814-.291-.349-.291-.814S69.516,81.2,69.691,81.2Z" transform="translate(-48.004 -38.192)" fill="#fefefe" fill-rule="evenodd"/>
      <path id="Path_8768" data-name="Path 8768" d="M73.141,82.3c.233,0,.349.465.349,1.1,0,.581-.174,1.1-.349,1.1s-.349-.465-.349-1.1C72.734,82.823,72.908,82.3,73.141,82.3Z" transform="translate(-49.419 -38.652)" fill="#fefefe" fill-rule="evenodd"/>
      <path id="Path_8769" data-name="Path 8769" d="M75.423,82.9c.291,0,.523.465.523,1.1,0,.581-.233,1.1-.523,1.1S74.9,84.644,74.9,84C74.9,83.423,75.133,82.9,75.423,82.9Z" transform="translate(-50.306 -38.903)" fill="#fefefe" fill-rule="evenodd"/>
      <path id="Path_8770" data-name="Path 8770" d="M75.665,77.2c.233,0,.465.581.465,1.337s-.233,1.337-.465,1.337-.465-.581-.465-1.337S75.374,77.2,75.665,77.2Z" transform="translate(-50.431 -36.518)" fill="#fefefe" fill-rule="evenodd"/>
      <path id="Path_8771" data-name="Path 8771" d="M73.441,77.1c.233,0,.349.523.349,1.163s-.174,1.163-.349,1.163c-.233,0-.349-.523-.349-1.163C73.034,77.623,73.208,77.1,73.441,77.1Z" transform="translate(-49.544 -36.476)" fill="#fefefe" fill-rule="evenodd"/>
      <path id="Path_8772" data-name="Path 8772" d="M71.449,76.9c.174,0,.349.523.349,1.163s-.116,1.163-.349,1.163c-.174,0-.349-.523-.349-1.163C71.158,77.423,71.274,76.9,71.449,76.9Z" transform="translate(-48.715 -36.392)" fill="#fefefe" fill-rule="evenodd"/>
      <path id="Path_8773" data-name="Path 8773" d="M69.449,76c.174,0,.349.523.349,1.163s-.116,1.163-.349,1.163c-.174,0-.349-.523-.349-1.163C69.158,76.465,69.274,76,69.449,76Z" transform="translate(-47.878 -36.015)" fill="#fefefe" fill-rule="evenodd"/>
      <path id="Path_8774" data-name="Path 8774" d="M67.591,75.2c.174,0,.291.523.291,1.163s-.116,1.163-.291,1.163S67.3,77,67.3,76.363C67.3,75.665,67.416,75.2,67.591,75.2Z" transform="translate(-47.125 -35.681)" fill="#fefefe" fill-rule="evenodd"/>
      <path id="Path_8775" data-name="Path 8775" d="M76.481,72.1c.291,0,.581.581.581,1.337s-.233,1.337-.581,1.337c-.291,0-.581-.581-.581-1.337S76.133,72.1,76.481,72.1Z" transform="translate(-50.724 -34.383)" fill="#fefefe" fill-rule="evenodd"/>
      <path id="Path_8776" data-name="Path 8776" d="M74.583,71.688c.233.058.291.7.116,1.4s-.465,1.221-.756,1.1c-.233-.058-.291-.7-.116-1.4S74.35,71.572,74.583,71.688Z" transform="translate(-49.814 -34.204)" fill="#fefefe" fill-rule="evenodd"/>
      <path id="Path_8777" data-name="Path 8777" d="M72.567,71.7c.233.058.291.64.116,1.279s-.465,1.1-.64,1.047c-.233-.058-.291-.64-.116-1.279C72.043,72.045,72.334,71.638,72.567,71.7Z" transform="translate(-49.019 -34.212)" fill="#fefefe" fill-rule="evenodd"/>
      <path id="Path_8778" data-name="Path 8778" d="M71.038,71.387c.174.058.233.581.116,1.163s-.407.988-.581.93-.233-.581-.116-1.163S70.863,71.271,71.038,71.387Z" transform="translate(-48.421 -34.077)" fill="#fefefe" fill-rule="evenodd"/>
      <path id="Path_8779" data-name="Path 8779" d="M69.638,70.6c.174.058.233.581.116,1.163s-.407.988-.581.93-.233-.581-.116-1.163S69.405,70.538,69.638,70.6Z" transform="translate(-47.835 -33.751)" fill="#fefefe" fill-rule="evenodd"/>
      <path id="Path_8780" data-name="Path 8780" d="M68.287,70.184c.174.058.174.523,0,1.047s-.465.872-.581.756c-.174-.058-.174-.523,0-1.047C67.822,70.416,68.113,70.068,68.287,70.184Z" transform="translate(-47.24 -33.572)" fill="#fefefe" fill-rule="evenodd"/>
      <path id="Path_8781" data-name="Path 8781" d="M77.807,67.7c.233,0,.407.465.407,1.047s-.174,1.047-.407,1.047-.407-.465-.407-1.047S77.574,67.7,77.807,67.7Z" transform="translate(-51.352 -32.542)" fill="#fefefe" fill-rule="evenodd"/>
      <path id="Path_8782" data-name="Path 8782" d="M76.057,67.2c.233,0,.407.523.349,1.1s-.233,1.047-.465,1.047-.407-.523-.349-1.1S75.824,67.2,76.057,67.2Z" transform="translate(-50.591 -32.332)" fill="#fefefe" fill-rule="evenodd"/>
      <path id="Path_8783" data-name="Path 8783" d="M74.4,67.4c.174,0,.349.407.291.93s-.233.872-.407.872-.349-.407-.291-.93S74.224,67.4,74.4,67.4Z" transform="translate(-49.921 -32.416)" fill="#fefefe" fill-rule="evenodd"/>
      <path id="Path_8784" data-name="Path 8784" d="M73,67.2c.174,0,.349.407.291.93s-.233.872-.407.872-.349-.407-.291-.93C72.592,67.545,72.824,67.138,73,67.2Z" transform="translate(-49.335 -32.328)" fill="#fefefe" fill-rule="evenodd"/>
      <path id="Path_8785" data-name="Path 8785" d="M71.749,66.9c.174.058.233.407.174.872s-.291.814-.465.756-.233-.407-.174-.872C71.4,67.186,71.575,66.837,71.749,66.9Z" transform="translate(-48.783 -32.202)" fill="#fefefe" fill-rule="evenodd"/>
      <path id="Path_8786" data-name="Path 8786" d="M70.661,66.595c.116.058.116.407,0,.814s-.349.64-.523.581c-.116-.058-.116-.407,0-.814C70.312,66.827,70.544,66.536,70.661,66.595Z" transform="translate(-48.276 -32.076)" fill="#fefefe" fill-rule="evenodd"/>
      <path id="Path_8787" data-name="Path 8787" d="M77.549,63.2c.233,0,.349.465.349,1.047s-.174,1.047-.349,1.047c-.233,0-.349-.465-.349-1.047S77.316,63.2,77.549,63.2Z" transform="translate(-51.268 -30.658)" fill="#fefefe" fill-rule="evenodd"/>
      <path id="Path_8788" data-name="Path 8788" d="M76.091,63.2c.174,0,.291.407.291.93s-.116.93-.291.93-.291-.407-.291-.93S75.974,63.2,76.091,63.2Z" transform="translate(-50.682 -30.658)" fill="#fefefe" fill-rule="evenodd"/>
      <path id="Path_8789" data-name="Path 8789" d="M74.938,63.2c.116,0,.233.407.174.872s-.233.814-.349.814-.233-.407-.174-.872S74.821,63.2,74.938,63.2Z" transform="translate(-50.169 -30.658)" fill="#fefefe" fill-rule="evenodd"/>
      <path id="Path_8790" data-name="Path 8790" d="M73.732,63.395c.116,0,.174.349.116.7s-.233.64-.349.64-.174-.349-.116-.7C73.442,63.627,73.616,63.337,73.732,63.395Z" transform="translate(-49.661 -30.737)" fill="#fefefe" fill-rule="evenodd"/>
      <path id="Path_8791" data-name="Path 8791" d="M72.4,63.4c.116,0,.174.291.058.581-.058.291-.233.523-.349.523s-.174-.291-.058-.581C72.113,63.633,72.287,63.4,72.4,63.4Z" transform="translate(-49.088 -30.742)" fill="#fefefe" fill-rule="evenodd"/>
      <path id="Path_8792" data-name="Path 8792" d="M71.463,63.494c.116,0,.116.233.058.523s-.174.523-.291.465c-.116,0-.116-.233-.058-.523S71.347,63.435,71.463,63.494Z" transform="translate(-48.73 -30.777)" fill="#fefefe" fill-rule="evenodd"/>
      <path id="Path_8793" data-name="Path 8793" d="M75.923,58.8c.291,0,.523.465.523,1.047s-.233,1.047-.523,1.047-.523-.465-.523-1.047S75.633,58.8,75.923,58.8Z" transform="translate(-50.515 -28.817)" fill="#fefefe" fill-rule="evenodd"/>
      <path id="Path_8794" data-name="Path 8794" d="M74.071,59.3c.233.058.349.465.291.93s-.349.814-.581.814c-.233-.058-.349-.465-.291-.93C73.606,59.586,73.838,59.237,74.071,59.3Z" transform="translate(-49.709 -29.021)" fill="#fefefe" fill-rule="evenodd"/>
      <path id="Path_8795" data-name="Path 8795" d="M72.408,59.395c.233.058.291.407.233.756-.058.407-.291.7-.523.64s-.291-.407-.233-.756C72,59.627,72.176,59.337,72.408,59.395Z" transform="translate(-49.035 -29.062)" fill="#fefefe" fill-rule="evenodd"/>
      <path id="Path_8796" data-name="Path 8796" d="M67.81,91.637,67.461,90.3c-.64,1.686-1.221,3.14-2.558,4.128-1.4-.465-1.744.64-1.8,1.279,0,.058.174,0,.233,0,.233-.872,1.337-1.221,2.21-.291.058-.058.233-.116.174-.233-.058-.233-.465-.523-.465-.523a7.936,7.936,0,0,0,2.558-3.024Z" transform="translate(-45.367 -42.001)" fill="#fefefe" fill-rule="evenodd"/>
      <path id="Path_8797" data-name="Path 8797" d="M67.573,80.741c.116-.233.233-.407.349-.349s.116.291.058.581c-.116.233-.233.407-.349.349A.641.641,0,0,1,67.573,80.741Z" transform="translate(-47.223 -37.849)" fill="#fefefe" fill-rule="evenodd"/>
      <path id="Path_8798" data-name="Path 8798" d="M90.455,7.272c-.174-.116-.233.058-.174.174,11.048,11.164,8.257,25.526-1.686,32.213-.116,3.256-1.686,4.826-2.617,5.408-.7-1.454-1.512.058-3.779-4.652-.872-1.977-.988-4.535-2.21-7.5-1.279-4.594,1.1-4.535,2.5-4.884l2.151.291c.116-.64-.523-1.337-1.861-1.977v-.872l-1.337-.523v.7h-.174A2.858,2.858,0,0,0,79,24.774V60.36c1.454-.116,3.663-.174,4.768-2.326a5.623,5.623,0,0,0,2.035,1.8c-.407.233-.64.523-.64.7.058.174.291.291.64.174.872-.93,1.744-.581,2.093.291l.756.058v-.116l-.291-.116a1.294,1.294,0,0,0-1.744-1.337c-.233.058-.349-.116-.291-.291,13.432-3.954,20.235-16.455,19.479-28.608,0-.058-.058-.116-.058-.174a23.164,23.164,0,0,0-.407-3.372c0-.058-.116-.058-.116-.116-.233-1.163-.291-3.431-.7-3.547a.125.125,0,0,1-.116-.116c-.581-2.326-1.337-4.361-2.093-4.594a.057.057,0,0,1-.058-.058c-.93-1.686-2.558-4.594-4.128-5.175l-.233-.058c-2.21-2.675-4.361-4.942-7.443-6.105Z" transform="translate(-52.022 -7.234)" fill="#1c7ab0" fill-rule="evenodd"/>
      <path id="Path_8799" data-name="Path 8799" d="M91.6,65.734c1.4-.988,2.558-3.663,2.675-6.454a36.258,36.258,0,0,0,5.64-6.222V53l-.058.058c-1.8,2.21-3.721,4.477-5.873,5.756A6.1,6.1,0,0,1,91.6,64.164v1.57Z" transform="translate(-57.295 -26.389)" fill="#fefefe" fill-rule="evenodd"/>
      <path id="Path_8800" data-name="Path 8800" d="M94.424,64.116c-.7,2.965-.93,5.291-3.024,7.152v.756c1.454-1.279,2.907-3.954,3.256-8.024Z" transform="translate(-57.212 -30.993)" fill="#fefefe" fill-rule="evenodd"/>
      <path id="Path_8801" data-name="Path 8801" d="M119.189,43.893c-.872-.174-1.861,1.919-3.256,3.663-1.279,1.628-2.675,2.907-2.733,3.14,0,.581,1.861-.64,3.605-2.617C118.026,46.567,119.48,45.114,119.189,43.893Z" transform="translate(-66.336 -22.573)" fill="#fefefe" fill-rule="evenodd"/>
      <path id="Path_8802" data-name="Path 8802" d="M119.418,48.777c-.7-.291-1.919,1.454-3.372,2.791-1.4,1.279-2.733,2.21-2.849,2.384-.116.523,1.744-.291,3.547-1.8,1.337-1.163,2.791-2.21,2.675-3.372Z" transform="translate(-66.332 -24.608)" fill="#fefefe" fill-rule="evenodd"/>
      <path id="Path_8803" data-name="Path 8803" d="M119.285,52.873c-.64-.291-1.8,1.163-3.256,2.268-1.337,1.047-2.617,1.744-2.733,1.919-.116.465,1.57-.116,3.314-1.337,1.279-.988,2.675-1.8,2.675-2.849Z" transform="translate(-66.374 -26.32)" fill="#fefefe" fill-rule="evenodd"/>
      <path id="Path_8804" data-name="Path 8804" d="M118.838,57.035c-.523-.407-1.8.64-3.256,1.4-1.337.64-2.675,1.047-2.791,1.163-.174.407,1.454.174,3.14-.581,1.337-.581,2.733-1.047,2.907-1.977Z" transform="translate(-66.159 -28.04)" fill="#fefefe" fill-rule="evenodd"/>
      <path id="Path_8805" data-name="Path 8805" d="M118.731,59.728c-.465-.407-1.8.523-3.256,1.1-1.4.523-2.675.814-2.791.93-.233.349,1.4.291,3.14-.349,1.279-.465,2.675-.756,2.907-1.686Z" transform="translate(-66.111 -29.163)" fill="#fefefe" fill-rule="evenodd"/>
      <path id="Path_8806" data-name="Path 8806" d="M118.264,62.711c-.349-.407-1.628.291-3.024.7-1.279.349-2.442.523-2.558.581-.233.291,1.221.349,2.791-.058,1.221-.233,2.442-.407,2.791-1.221Z" transform="translate(-66.109 -30.402)" fill="#fefefe" fill-rule="evenodd"/>
      <path id="Path_8807" data-name="Path 8807" d="M117.764,64.9c-.349-.407-1.628.174-3.024.407-1.279.233-2.442.291-2.558.349-.233.233,1.163.407,2.733.174C116.136,65.655,117.357,65.6,117.764,64.9Z" transform="translate(-65.899 -31.31)" fill="#fefefe" fill-rule="evenodd"/>
      <path id="Path_8808" data-name="Path 8808" d="M117.363,66.784c-.291-.407-1.628.058-3.024.291-1.279.174-2.442.174-2.558.233-.233.233,1.1.465,2.733.291C115.677,67.424,116.956,67.424,117.363,66.784Z" transform="translate(-65.731 -32.091)" fill="#fefefe" fill-rule="evenodd"/>
      <path id="Path_8809" data-name="Path 8809" d="M116.563,68.7c-.291-.349-1.628.058-3.024.174-1.279.116-2.442.116-2.558.174-.233.174,1.1.407,2.733.233,1.221,0,2.5-.058,2.849-.581Z" transform="translate(-65.396 -32.902)" fill="#fefefe" fill-rule="evenodd"/>
      <path id="Path_8810" data-name="Path 8810" d="M115.871,70.778c-.291-.349-1.57-.058-2.849,0-1.221.058-2.326-.058-2.442,0-.233.174,1.047.407,2.558.407C114.3,71.127,115.464,71.244,115.871,70.778Z" transform="translate(-65.228 -33.759)" fill="#fefefe" fill-rule="evenodd"/>
      <path id="Path_8811" data-name="Path 8811" d="M114.761,72.617c-.233-.349-1.57-.233-2.849-.291-1.221-.058-2.268-.291-2.442-.233-.291.116.988.523,2.5.64,1.221.116,2.384.291,2.791-.116Z" transform="translate(-64.757 -34.377)" fill="#fefefe" fill-rule="evenodd"/>
      <path id="Path_8812" data-name="Path 8812" d="M114.4,74.23c-.233-.349-1.512-.349-2.849-.523-1.221-.174-2.268-.407-2.384-.407-.291.116.93.581,2.442.872C112.774,74.347,113.937,74.579,114.4,74.23Z" transform="translate(-64.631 -34.885)" fill="#fefefe" fill-rule="evenodd"/>
      <path id="Path_8813" data-name="Path 8813" d="M113.194,75.547c-.174-.349-1.4-.349-2.617-.581-1.1-.174-2.093-.465-2.21-.465-.291.116.872.581,2.268.872C111.682,75.6,112.729,75.9,113.194,75.547Z" transform="translate(-64.294 -35.388)" fill="#fefefe" fill-rule="evenodd"/>
      <path id="Path_8814" data-name="Path 8814" d="M112.212,77.058c-.174-.349-1.337-.407-2.442-.64-1.047-.233-1.977-.581-2.093-.523-.233.116.814.64,2.093.93.988.233,2.035.523,2.442.233Z" transform="translate(-64.01 -35.969)" fill="#fefefe" fill-rule="evenodd"/>
      <path id="Path_8815" data-name="Path 8815" d="M111.561,78.5c-.116-.349-1.221-.465-2.268-.756-.988-.291-1.8-.64-1.919-.64-.233.058.7.64,1.919,1.047.93.291,1.861.7,2.268.349Z" transform="translate(-63.882 -36.476)" fill="#fefefe" fill-rule="evenodd"/>
      <path id="Path_8816" data-name="Path 8816" d="M110.527,79.77c-.116-.349-1.163-.523-2.151-.872-.93-.349-1.744-.7-1.8-.7-.233.058.64.64,1.8,1.1.814.291,1.686.7,2.151.465Z" transform="translate(-63.546 -36.936)" fill="#fefefe" fill-rule="evenodd"/>
      <path id="Path_8817" data-name="Path 8817" d="M109.569,80.9c-.116-.349-1.1-.581-2.093-.988-.93-.349-1.686-.814-1.8-.814-.233.058.64.7,1.744,1.163C108.289,80.67,109.1,81.135,109.569,80.9Z" transform="translate(-63.17 -37.313)" fill="#fefefe" fill-rule="evenodd"/>
      <path id="Path_8818" data-name="Path 8818" d="M108.634,82.019c-.058-.349-1.047-.581-1.977-1.047-.872-.407-1.57-.872-1.686-.872-.233.058.581.7,1.628,1.221C107.413,81.786,108.169,82.251,108.634,82.019Z" transform="translate(-62.875 -37.732)" fill="#fefefe" fill-rule="evenodd"/>
      <path id="Path_8819" data-name="Path 8819" d="M107.833,83.11c-.058-.349-1.047-.7-1.977-1.221-.872-.465-1.57-.988-1.686-.988-.233,0,.523.756,1.628,1.4C106.554,82.761,107.368,83.284,107.833,83.11Z" transform="translate(-62.539 -38.066)" fill="#fefefe" fill-rule="evenodd"/>
      <path id="Path_8820" data-name="Path 8820" d="M106.8,83.968c-.058-.349-.988-.7-1.861-1.221-.814-.465-1.454-.988-1.57-1.047-.233,0,.465.756,1.454,1.4C105.635,83.561,106.391,84.142,106.8,83.968Z" transform="translate(-62.202 -38.401)" fill="#fefefe" fill-rule="evenodd"/>
      <path id="Path_8821" data-name="Path 8821" d="M106.082,84.884c0-.349-.93-.756-1.8-1.279a14.528,14.528,0,0,1-1.512-1.1c-.233,0,.465.756,1.454,1.454.7.465,1.4,1.047,1.861.93Z" transform="translate(-61.951 -38.736)" fill="#fefefe" fill-rule="evenodd"/>
      <path id="Path_8822" data-name="Path 8822" d="M105.131,85.584c0-.349-.872-.756-1.628-1.279-.7-.523-1.279-1.047-1.337-1.1-.233,0,.407.756,1.221,1.454.7.465,1.337,1.047,1.744.93Z" transform="translate(-61.697 -39.029)" fill="#fefefe" fill-rule="evenodd"/>
      <path id="Path_8823" data-name="Path 8823" d="M104.254,86.317c0-.349-.814-.814-1.512-1.4-.64-.581-1.163-1.163-1.279-1.221-.233,0,.349.756,1.163,1.512.581.581,1.163,1.163,1.628,1.1Z" transform="translate(-61.402 -39.238)" fill="#fefefe" fill-rule="evenodd"/>
      <path id="Path_8824" data-name="Path 8824" d="M103.293,87.175c0-.349-.756-.814-1.454-1.454-.64-.581-1.163-1.163-1.279-1.221-.233,0,.291.756,1.1,1.512.64.581,1.221,1.221,1.628,1.163Z" transform="translate(-61.022 -39.573)" fill="#fefefe" fill-rule="evenodd"/>
      <path id="Path_8825" data-name="Path 8825" d="M102.218,87.989c.058-.349-.756-.872-1.4-1.512s-1.1-1.221-1.163-1.279c-.233-.058.291.814,1.047,1.57.523.581,1.047,1.279,1.512,1.221Z" transform="translate(-60.645 -39.864)" fill="#fefefe" fill-rule="evenodd"/>
      <path id="Path_8826" data-name="Path 8826" d="M100.936,88.747c.058-.291-.64-.872-1.221-1.57A8.958,8.958,0,0,0,98.668,85.9c-.174-.058.174.756.872,1.57C100.063,88.107,100.529,88.747,100.936,88.747Z" transform="translate(-60.235 -40.157)" fill="#fefefe" fill-rule="evenodd"/>
      <path id="Path_8827" data-name="Path 8827" d="M100,89.489c.058-.291-.581-.872-1.1-1.512s-.872-1.221-.93-1.279c-.174-.058.174.756.756,1.57.407.581.872,1.221,1.279,1.221Z" transform="translate(-59.942 -40.492)" fill="#fefefe" fill-rule="evenodd"/>
      <path id="Path_8828" data-name="Path 8828" d="M98.983,90.005c.116-.291-.523-.872-1.047-1.57-.465-.64-.814-1.279-.872-1.337-.174-.058.116.756.7,1.57.407.64.814,1.337,1.221,1.337Z" transform="translate(-59.561 -40.659)" fill="#fefefe" fill-rule="evenodd"/>
      <path id="Path_8829" data-name="Path 8829" d="M98.108,90.621c.116-.291-.465-.93-.93-1.628-.407-.64-.756-1.337-.814-1.4-.174-.058.116.756.64,1.628.349.64.7,1.337,1.1,1.4Z" transform="translate(-59.268 -40.868)" fill="#fefefe" fill-rule="evenodd"/>
      <path id="Path_8830" data-name="Path 8830" d="M97.07,91.205c.116-.291-.407-.872-.814-1.57-.349-.64-.64-1.279-.7-1.337-.174-.058.058.756.523,1.57.291.64.581,1.279.988,1.337Z" transform="translate(-58.928 -41.161)" fill="#fefefe" fill-rule="evenodd"/>
      <path id="Path_8831" data-name="Path 8831" d="M96.189,91.616c.116-.233-.349-.93-.7-1.628s-.581-1.337-.64-1.4c-.174-.116,0,.756.407,1.57.233.7.523,1.4.93,1.454Z" transform="translate(-58.628 -41.282)" fill="#fefefe" fill-rule="evenodd"/>
      <path id="Path_8832" data-name="Path 8832" d="M95.072,92.274c.116-.233-.349-.93-.64-1.686-.291-.7-.523-1.337-.581-1.4-.174-.116,0,.756.349,1.628.291.64.523,1.337.872,1.454Z" transform="translate(-58.209 -41.533)" fill="#fefefe" fill-rule="evenodd"/>
      <path id="Path_8833" data-name="Path 8833" d="M94.088,92.732c.174-.233-.291-.93-.581-1.686a8.38,8.38,0,0,1-.465-1.454c-.174-.116-.058.7.233,1.628.233.7.465,1.4.814,1.512Z" transform="translate(-57.864 -41.7)" fill="#fefefe" fill-rule="evenodd"/>
      <path id="Path_8834" data-name="Path 8834" d="M93.005,93.174c.116-.233-.291-.93-.64-1.686-.291-.7-.465-1.337-.523-1.4-.174-.116-.058.756.291,1.628.291.64.523,1.337.872,1.454Z" transform="translate(-57.363 -41.909)" fill="#fefefe" fill-rule="evenodd"/>
      <path id="Path_8835" data-name="Path 8835" d="M91.805,93.874c.116-.233-.291-.93-.64-1.686-.291-.7-.465-1.337-.523-1.4-.174-.116-.058.756.291,1.628.291.64.523,1.337.872,1.454Z" transform="translate(-56.861 -42.202)" fill="#fefefe" fill-rule="evenodd"/>
      <path id="Path_8836" data-name="Path 8836" d="M90.732,93.856c.116-.233-.291-.756-.64-1.4-.291-.581-.465-1.1-.523-1.163-.116-.058,0,.64.349,1.337.233.581.465,1.163.814,1.221Z" transform="translate(-56.427 -42.417)" fill="#fefefe" fill-rule="evenodd"/>
      <path id="Path_8837" data-name="Path 8837" d="M107.882,51.51a2.45,2.45,0,0,0-.814,2.035c.233.407.93.233,1.57-.465a2.45,2.45,0,0,0,.814-2.035c-.233-.407-.93-.233-1.57.465Z" transform="translate(-63.751 -25.48)" fill="#fefefe" fill-rule="evenodd"/>
      <path id="Path_8838" data-name="Path 8838" d="M108.838,55.518a2.126,2.126,0,0,0-.756,1.686c.174.349.756.233,1.337-.349a2.126,2.126,0,0,0,.756-1.686C110,54.82,109.419,54.995,108.838,55.518Z" transform="translate(-64.183 -27.221)" fill="#fefefe" fill-rule="evenodd"/>
      <path id="Path_8839" data-name="Path 8839" d="M108.943,59.48c-.64.407-1.1.988-1.047,1.337s.64.349,1.279,0c.64-.407,1.1-.988,1.047-1.337C110.164,59.073,109.583,59.073,108.943,59.48Z" transform="translate(-64.114 -28.974)" fill="#fefefe" fill-rule="evenodd"/>
      <path id="Path_8840" data-name="Path 8840" d="M109.147,63c-.581.233-1.047.7-1.047,1.047s.465.407,1.047.116,1.047-.7,1.047-1.047c0-.291-.465-.349-1.047-.116Z" transform="translate(-64.201 -30.513)" fill="#fefefe" fill-rule="evenodd"/>
      <path id="Path_8841" data-name="Path 8841" d="M107.805,66c-.581,0-1.1.174-1.221.465s.233.523.814.523,1.1-.174,1.221-.465c.116-.233-.233-.465-.814-.523Z" transform="translate(-63.557 -31.83)" fill="#fefefe" fill-rule="evenodd"/>
      <path id="Path_8842" data-name="Path 8842" d="M107.147,68.485c-.523-.058-1.1,0-1.279.233s.174.465.756.581c.523.058,1.1,0,1.279-.233s-.174-.523-.756-.581Z" transform="translate(-63.248 -32.861)" fill="#fefefe" fill-rule="evenodd"/>
      <path id="Path_8843" data-name="Path 8843" d="M106.144,71.168c-.523-.116-1.047,0-1.163.291-.116.233.174.523.64.581.523.116,1.047,0,1.163-.291C106.959,71.517,106.668,71.226,106.144,71.168Z" transform="translate(-62.885 -33.974)" fill="#fefefe" fill-rule="evenodd"/>
      <path id="Path_8844" data-name="Path 8844" d="M104.163,73.268c-.581-.116-1.221,0-1.4.291-.174.233.174.523.814.581.581.116,1.221,0,1.4-.291C105.094,73.617,104.745,73.326,104.163,73.268Z" transform="translate(-61.951 -34.853)" fill="#fefefe" fill-rule="evenodd"/>
      <path id="Path_8845" data-name="Path 8845" d="M103.488,75.568c-.523-.116-1.1,0-1.221.291-.174.233.174.523.7.581.523.116,1.1,0,1.221-.291C104.361,75.917,104.07,75.626,103.488,75.568Z" transform="translate(-61.741 -35.816)" fill="#fefefe" fill-rule="evenodd"/>
      <path id="Path_8846" data-name="Path 8846" d="M102.456,77.533a1.365,1.365,0,0,0-1.1-.174c-.174.174,0,.465.407.7a1.365,1.365,0,0,0,1.1.174c.233-.174.058-.465-.407-.7Z" transform="translate(-61.349 -36.56)" fill="#fefefe" fill-rule="evenodd"/>
      <path id="Path_8847" data-name="Path 8847" d="M101.42,79.123c-.349-.291-.756-.465-.988-.349-.174.116-.116.465.233.756s.756.465.988.349C101.885,79.82,101.769,79.472,101.42,79.123Z" transform="translate(-60.952 -37.161)" fill="#fefefe" fill-rule="evenodd"/>
      <path id="Path_8848" data-name="Path 8848" d="M99.888,80.643c-.291-.349-.756-.581-.988-.465s-.174.465.174.814c.291.349.756.581.988.465s.116-.465-.174-.814Z" transform="translate(-60.292 -37.752)" fill="#fefefe" fill-rule="evenodd"/>
      <path id="Path_8849" data-name="Path 8849" d="M98.247,82.234c-.233-.407-.64-.7-.872-.64s-.233.407,0,.814.64.7.872.64C98.537,82.99,98.537,82.641,98.247,82.234Z" transform="translate(-59.639 -38.354)" fill="#fefefe" fill-rule="evenodd"/>
      <path id="Path_8850" data-name="Path 8850" d="M96.547,83.292c-.233-.465-.64-.756-.872-.7s-.233.465,0,.872c.233.465.64.756.872.7C96.837,84.106,96.779,83.758,96.547,83.292Z" transform="translate(-58.928 -38.773)" fill="#fefefe" fill-rule="evenodd"/>
      <path id="Path_8851" data-name="Path 8851" d="M95,84.493c-.233-.407-.64-.756-.93-.7-.233.058-.233.407,0,.872.233.407.64.756.93.7S95.3,84.9,95,84.493Z" transform="translate(-58.258 -39.276)" fill="#fefefe" fill-rule="evenodd"/>
      <path id="Path_8852" data-name="Path 8852" d="M93.847,85.793c-.233-.407-.64-.756-.872-.7s-.233.407,0,.872c.233.407.64.756.872.7S94.079,86.2,93.847,85.793Z" transform="translate(-57.798 -39.82)" fill="#fefefe" fill-rule="evenodd"/>
      <path id="Path_8853" data-name="Path 8853" d="M92.239,86.468c-.116-.465-.407-.872-.64-.872-.233-.058-.349.291-.233.756s.407.872.64.872C92.239,87.282,92.356,86.933,92.239,86.468Z" transform="translate(-57.179 -40.029)" fill="#fefefe" fill-rule="evenodd"/>
      <path id="Path_8854" data-name="Path 8854" d="M90.746,87.326a1.142,1.142,0,0,0-.581-.93c-.233-.058-.407.291-.291.756a1.142,1.142,0,0,0,.581.93C90.687,88.14,90.8,87.791,90.746,87.326Z" transform="translate(-56.557 -40.364)" fill="#fefefe" fill-rule="evenodd"/>
      <path id="Path_8855" data-name="Path 8855" d="M89.172,88.083c0-.465-.233-.93-.465-.988s-.407.233-.407.7.233.93.465.988C89,88.9,89.172,88.606,89.172,88.083Z" transform="translate(-55.914 -40.656)" fill="#fefefe" fill-rule="evenodd"/>
      <path id="Path_8856" data-name="Path 8856" d="M107.472,48.578a3.39,3.39,0,0,0-.872,1.8c.058.407.465.291.988-.349a3.39,3.39,0,0,0,.872-1.8C108.4,47.822,108,47.938,107.472,48.578Z" transform="translate(-63.573 -24.293)" fill="#fefefe" fill-rule="evenodd"/>
      <path id="Path_8857" data-name="Path 8857" d="M104.484,54.851a2.5,2.5,0,0,0-.988,1.4c-.058.349.349.291.872-.116a2.5,2.5,0,0,0,.988-1.4C105.357,54.386,105.008,54.444,104.484,54.851Z" transform="translate(-62.272 -27.019)" fill="#fefefe" fill-rule="evenodd"/>
      <path id="Path_8858" data-name="Path 8858" d="M105.384,57.251a2.5,2.5,0,0,0-.988,1.4c-.058.349.349.291.872-.116a2.5,2.5,0,0,0,.988-1.4c.058-.349-.349-.291-.872.116Z" transform="translate(-62.649 -28.024)" fill="#fefefe" fill-rule="evenodd"/>
      <path id="Path_8859" data-name="Path 8859" d="M105.858,60.2a2.908,2.908,0,0,0-1.163,1.279c-.058.349.291.349.872,0a2.908,2.908,0,0,0,1.163-1.279C106.789,59.789,106.382,59.847,105.858,60.2Z" transform="translate(-62.774 -29.282)" fill="#fefefe" fill-rule="evenodd"/>
      <path id="Path_8860" data-name="Path 8860" d="M105.6,63.5a3.108,3.108,0,0,0-1.1,1.279c-.058.349.291.349.814,0a3.108,3.108,0,0,0,1.1-1.279C106.531,63.089,106.124,63.147,105.6,63.5Z" transform="translate(-62.69 -30.663)" fill="#fefefe" fill-rule="evenodd"/>
      <path id="Path_8861" data-name="Path 8861" d="M103.793,67.374c-.407.233-.756.64-.7.872s.407.233.814,0,.756-.64.7-.872C104.607,67.142,104.2,67.142,103.793,67.374Z" transform="translate(-62.104 -32.332)" fill="#fefefe" fill-rule="evenodd"/>
      <path id="Path_8862" data-name="Path 8862" d="M103.683,69.6c-.465,0-.93.174-.988.407s.233.407.756.407c.465,0,.93-.174.988-.407S104.148,69.6,103.683,69.6Z" transform="translate(-61.936 -33.337)" fill="#fefefe" fill-rule="evenodd"/>
      <path id="Path_8863" data-name="Path 8863" d="M102.688,71.6a1.064,1.064,0,0,0-.93-.058c-.174.174.058.407.407.581a1.064,1.064,0,0,0,.93.058c.174-.174,0-.407-.407-.581Z" transform="translate(-61.522 -34.116)" fill="#fefefe" fill-rule="evenodd"/>
      <path id="Path_8864" data-name="Path 8864" d="M101.281,73.914c-.349-.233-.756-.349-.93-.174s0,.465.349.756c.349.233.756.349.93.174S101.63,74.147,101.281,73.914Z" transform="translate(-60.929 -35.034)" fill="#fefefe" fill-rule="evenodd"/>
      <path id="Path_8865" data-name="Path 8865" d="M100.281,75.514c-.349-.233-.756-.349-.93-.174s0,.465.349.756c.349.233.756.349.93.174S100.63,75.747,100.281,75.514Z" transform="translate(-60.511 -35.704)" fill="#fefefe" fill-rule="evenodd"/>
      <path id="Path_8866" data-name="Path 8866" d="M99.185,77.359c-.233-.291-.581-.407-.756-.291s-.116.407.174.7c.233.291.581.407.756.291S99.476,77.649,99.185,77.359Z" transform="translate(-60.113 -36.444)" fill="#fefefe" fill-rule="evenodd"/>
      <path id="Path_8867" data-name="Path 8867" d="M97.685,78.659c-.233-.291-.581-.407-.756-.291s-.116.407.174.7c.233.291.581.407.756.291S97.976,78.949,97.685,78.659Z" transform="translate(-59.485 -36.988)" fill="#fefefe" fill-rule="evenodd"/>
      <path id="Path_8868" data-name="Path 8868" d="M96.185,79.859c-.233-.291-.581-.407-.756-.291s-.116.407.174.7c.233.291.581.407.756.291C96.476,80.44,96.418,80.149,96.185,79.859Z" transform="translate(-58.857 -37.49)" fill="#fefefe" fill-rule="evenodd"/>
      <path id="Path_8869" data-name="Path 8869" d="M95.064,81.138a.621.621,0,0,0-.64-.349c-.174.058-.116.349.058.64a.621.621,0,0,0,.64.349c.116-.058.116-.349-.058-.64Z" transform="translate(-58.433 -38.014)" fill="#fefefe" fill-rule="evenodd"/>
      <path id="Path_8870" data-name="Path 8870" d="M93.981,82.159c-.116-.291-.407-.523-.581-.465s-.174.349-.058.64.407.523.581.465S94.1,82.508,93.981,82.159Z" transform="translate(-57.99 -38.395)" fill="#fefefe" fill-rule="evenodd"/>
      <path id="Path_8871" data-name="Path 8871" d="M92.581,83.159c-.116-.291-.407-.523-.581-.465s-.174.349-.058.64.407.523.581.465S92.756,83.449,92.581,83.159Z" transform="translate(-57.404 -38.813)" fill="#fefefe" fill-rule="evenodd"/>
      <path id="Path_8872" data-name="Path 8872" d="M91.448,84.081c-.058-.291-.233-.581-.407-.581s-.291.233-.174.581c.058.291.233.581.407.581A.549.549,0,0,0,91.448,84.081Z" transform="translate(-56.969 -39.155)" fill="#fefefe" fill-rule="evenodd"/>
      <path id="Path_8873" data-name="Path 8873" d="M89.94,84.833c0-.291-.116-.64-.291-.64-.174-.058-.349.174-.349.523,0,.291.116.64.291.64S89.94,85.182,89.94,84.833Z" transform="translate(-56.333 -39.441)" fill="#fefefe" fill-rule="evenodd"/>
      <path id="Path_8874" data-name="Path 8874" d="M89.665,82.865c0-.233-.116-.465-.233-.465s-.233.174-.233.407.116.465.233.465S89.665,83.1,89.665,82.865Z" transform="translate(-56.291 -38.694)" fill="#fefefe" fill-rule="evenodd"/>
      <path id="Path_8875" data-name="Path 8875" d="M90.791,82.307c-.058-.233-.174-.407-.291-.407s-.174.174-.116.407.174.407.291.407C90.791,82.772,90.849,82.54,90.791,82.307Z" transform="translate(-56.777 -38.485)" fill="#fefefe" fill-rule="evenodd"/>
      <path id="Path_8876" data-name="Path 8876" d="M91.544,81.58c-.116-.233-.291-.349-.407-.291s-.116.233,0,.465.291.349.407.291S91.661,81.754,91.544,81.58Z" transform="translate(-57.065 -38.223)" fill="#fefefe" fill-rule="evenodd"/>
      <path id="Path_8877" data-name="Path 8877" d="M92.744,80.88c-.116-.233-.291-.349-.407-.291s-.116.233,0,.465.291.349.407.291S92.861,81.054,92.744,80.88Z" transform="translate(-57.567 -37.93)" fill="#fefefe" fill-rule="evenodd"/>
      <path id="Path_8878" data-name="Path 8878" d="M93.522,80.041c-.174-.174-.349-.291-.465-.174s-.058.233.116.407.349.291.465.174C93.754,80.39,93.7,80.215,93.522,80.041Z" transform="translate(-57.88 -37.614)" fill="#fefefe" fill-rule="evenodd"/>
      <path id="Path_8879" data-name="Path 8879" d="M94.422,79.241c-.174-.174-.349-.291-.465-.174-.116.058-.058.233.116.407s.349.291.465.174C94.6,79.59,94.6,79.415,94.422,79.241Z" transform="translate(-58.256 -37.279)" fill="#fefefe" fill-rule="evenodd"/>
      <path id="Path_8880" data-name="Path 8880" d="M95.538,77.9c-.174-.233-.465-.349-.581-.233-.116.058-.058.349.116.523.174.233.465.349.581.233C95.829,78.365,95.77,78.132,95.538,77.9Z" transform="translate(-58.675 -36.694)" fill="#fefefe" fill-rule="evenodd"/>
      <path id="Path_8881" data-name="Path 8881" d="M96.8,76.517a.675.675,0,0,0-.64-.233c-.116.116-.058.349.174.581a.675.675,0,0,0,.64.233c.116-.116.058-.349-.174-.581Z" transform="translate(-59.179 -36.126)" fill="#fefefe" fill-rule="evenodd"/>
      <path id="Path_8882" data-name="Path 8882" d="M98,75.1c-.233-.233-.581-.349-.756-.233s-.058.407.174.64.581.349.756.233C98.286,75.623,98.228,75.332,98,75.1Z" transform="translate(-59.621 -35.522)" fill="#fefefe" fill-rule="evenodd"/>
      <path id="Path_8883" data-name="Path 8883" d="M98.9,73.2c-.233-.233-.581-.349-.756-.233s-.058.407.174.64.581.349.756.233S99.128,73.432,98.9,73.2Z" transform="translate(-59.997 -34.727)" fill="#fefefe" fill-rule="evenodd"/>
      <path id="Path_8884" data-name="Path 8884" d="M99.83,71.306c-.349-.174-.7-.174-.756,0-.116.174.058.407.407.523.349.174.7.174.756,0C100.353,71.713,100.179,71.48,99.83,71.306Z" transform="translate(-60.409 -33.996)" fill="#fefefe" fill-rule="evenodd"/>
      <path id="Path_8885" data-name="Path 8885" d="M100.509,69.2c-.407,0-.814.174-.814.407-.058.233.233.407.7.407.407,0,.814-.174.814-.407.058-.174-.291-.349-.7-.407Z" transform="translate(-60.68 -33.169)" fill="#fefefe" fill-rule="evenodd"/>
      <path id="Path_8886" data-name="Path 8886" d="M101.172,66.86c-.465.116-.872.349-.872.64,0,.233.407.349.93.233.465-.116.872-.349.872-.64S101.637,66.743,101.172,66.86Z" transform="translate(-60.937 -32.166)" fill="#fefefe" fill-rule="evenodd"/>
      <path id="Path_8887" data-name="Path 8887" d="M101.93,63.792c-.523.116-.93.407-.93.756s.349.523.872.407.93-.407.93-.756C102.8,63.908,102.4,63.734,101.93,63.792Z" transform="translate(-61.23 -30.901)" fill="#fefefe" fill-rule="evenodd"/>
      <path id="Path_8888" data-name="Path 8888" d="M101.464,61.333c-.465.407-.756.93-.523,1.1.174.174.756,0,1.279-.407.465-.407.756-.93.523-1.1C102.511,60.694,101.93,60.868,101.464,61.333Z" transform="translate(-61.171 -29.664)" fill="#fefefe" fill-rule="evenodd"/>
      <path id="Path_8889" data-name="Path 8889" d="M101.559,58.659c-.407.407-.581.872-.407,1.047s.7,0,1.1-.407.581-.872.407-1.047S101.966,58.252,101.559,58.659Z" transform="translate(-61.265 -28.559)" fill="#fefefe" fill-rule="evenodd"/>
      <path id="Path_8890" data-name="Path 8890" d="M98.259,61.764c-.407.407-.581.872-.407,1.047s.7,0,1.1-.407.581-.872.407-1.047-.7.058-1.1.407Z" transform="translate(-59.884 -29.862)" fill="#fefefe" fill-rule="evenodd"/>
      <path id="Path_8891" data-name="Path 8891" d="M98.009,64.184c-.523.116-.872.349-.814.581s.523.291.988.174c.523-.116.872-.349.814-.581C98.94,64.184,98.533,64.126,98.009,64.184Z" transform="translate(-59.635 -31.061)" fill="#fefefe" fill-rule="evenodd"/>
      <path id="Path_8892" data-name="Path 8892" d="M98.009,65.989c-.523.058-.872.291-.814.523s.465.349.988.233c.523-.058.872-.291.814-.523C98.94,66.047,98.475,65.931,98.009,65.989Z" transform="translate(-59.635 -31.819)" fill="#fefefe" fill-rule="evenodd"/>
      <path id="Path_8893" data-name="Path 8893" d="M97.472,68c-.465,0-.872.174-.872.349,0,.233.407.349.93.407.465,0,.872-.174.872-.349-.058-.233-.465-.407-.93-.407Z" transform="translate(-59.388 -32.667)" fill="#fefefe" fill-rule="evenodd"/>
      <path id="Path_8894" data-name="Path 8894" d="M97.3,69.8c-.407,0-.7.116-.7.291s.349.291.7.291c.407,0,.7-.116.7-.291,0-.116-.349-.291-.7-.291Z" transform="translate(-59.388 -33.421)" fill="#fefefe" fill-rule="evenodd"/>
      <path id="Path_8895" data-name="Path 8895" d="M96.751,71.456c-.349-.116-.7-.058-.756.116s.233.465.581.581.7.058.756-.116C97.39,71.805,97.1,71.573,96.751,71.456Z" transform="translate(-59.132 -34.088)" fill="#fefefe" fill-rule="evenodd"/>
      <path id="Path_8896" data-name="Path 8896" d="M96.049,73.11c-.349-.174-.7-.174-.756.058-.058.174.174.465.523.64s.7.174.756-.058C96.631,73.576,96.4,73.285,96.049,73.11Z" transform="translate(-58.838 -34.754)" fill="#fefefe" fill-rule="evenodd"/>
      <path id="Path_8897" data-name="Path 8897" d="M95.231,74.482c-.291-.174-.581-.233-.64-.058s.116.407.349.64c.291.174.581.233.64.058.116-.174-.058-.465-.349-.64Z" transform="translate(-58.543 -35.312)" fill="#fefefe" fill-rule="evenodd"/>
      <path id="Path_8898" data-name="Path 8898" d="M94.371,75.8c-.233-.174-.523-.174-.581-.058s.058.407.349.523c.233.174.523.174.581.058C94.778,76.265,94.662,75.974,94.371,75.8Z" transform="translate(-58.206 -35.873)" fill="#fefefe" fill-rule="evenodd"/>
      <path id="Path_8899" data-name="Path 8899" d="M93.571,76.8c-.233-.174-.523-.174-.581-.058s.058.407.349.523c.233.174.523.174.581.058S93.8,76.974,93.571,76.8Z" transform="translate(-57.871 -36.292)" fill="#fefefe" fill-rule="evenodd"/>
      <path id="Path_8900" data-name="Path 8900" d="M92.771,77.8c-.233-.174-.523-.174-.581-.058s.058.407.349.523c.233.174.523.174.581.058S93,77.974,92.771,77.8Z" transform="translate(-57.536 -36.711)" fill="#fefefe" fill-rule="evenodd"/>
      <path id="Path_8901" data-name="Path 8901" d="M91.99,78.7c-.174-.233-.407-.349-.523-.233s0,.407.174.64.407.349.523.233A.729.729,0,0,0,91.99,78.7Z" transform="translate(-57.22 -37.029)" fill="#fefefe" fill-rule="evenodd"/>
      <path id="Path_8902" data-name="Path 8902" d="M90.99,79.6c-.174-.233-.407-.349-.523-.233s0,.407.174.64.407.349.523.233A.766.766,0,0,0,90.99,79.6Z" transform="translate(-56.801 -37.406)" fill="#fefefe" fill-rule="evenodd"/>
      <path id="Path_8903" data-name="Path 8903" d="M118.1,38.394c-1.1-.174-1.8,2.5-3.082,4.826-1.163,2.151-2.558,3.838-2.617,4.128.116.756,2.151-.872,3.721-3.489,1.221-2.035,2.675-3.838,1.977-5.466Z" transform="translate(-66.001 -20.272)" fill="#fefefe" fill-rule="evenodd"/>
      <path id="Path_8904" data-name="Path 8904" d="M116.377,31.8c-1.163,0-1.512,3.14-2.442,5.989-.93,2.617-2.035,4.768-2.035,5.059.233.814,2.093-1.4,3.372-4.652.872-2.384,2.093-4.71,1.1-6.4Z" transform="translate(-65.792 -17.516)" fill="#fefefe" fill-rule="evenodd"/>
      <path id="Path_8905" data-name="Path 8905" d="M113.431,23.541c-.058-.058-.349-.116-.349-.058-1.686,1.977-.407,4.245-.93,7.792-.523,3.314-1.512,6.105-1.454,6.512.349.93,1.977-2.733,2.965-6.4.814-3.024.93-6.163-.233-7.85Z" transform="translate(-65.288 -14.025)" fill="#fefefe" fill-rule="evenodd"/>
      <path id="Path_8906" data-name="Path 8906" d="M105.747,15.368A11.72,11.72,0,0,0,99.7,8.1c8.664,9.071,6.977,16.862,5.582,22.328.523.756,1.454-3.2,1.744-6.977C107.259,20.311,106.735,18.915,105.747,15.368Z" transform="translate(-60.685 -7.596)" fill="#fefefe" fill-rule="evenodd"/>
      <path id="Path_8907" data-name="Path 8907" d="M86.316,93.1c-.058,0-.116.291-.116.7s.058.7.116.7.116-.291.116-.7S86.374,93.1,86.316,93.1Z" transform="translate(-55.035 -43.173)" fill="#fefefe" fill-rule="evenodd"/>
      <path id="Path_8908" data-name="Path 8908" d="M85.716,93.9c-.058,0-.116.291-.116.7s.058.7.116.7.116-.291.116-.7S85.774,93.9,85.716,93.9Z" transform="translate(-54.784 -43.507)" fill="#fefefe" fill-rule="evenodd"/>
      <path id="Path_8909" data-name="Path 8909" d="M84.916,94.3c-.058,0-.116.291-.116.7,0,.349.058.7.116.7s.116-.291.116-.7S84.974,94.3,84.916,94.3Z" transform="translate(-54.449 -43.675)" fill="#fefefe" fill-rule="evenodd"/>
      <path id="Path_8910" data-name="Path 8910" d="M83.916,94.9c-.058,0-.116.291-.116.7,0,.349.058.7.116.7s.116-.291.116-.7C84.033,95.249,83.974,94.9,83.916,94.9Z" transform="translate(-54.031 -43.926)" fill="#fefefe" fill-rule="evenodd"/>
      <path id="Path_8911" data-name="Path 8911" d="M83.116,95.2c-.058,0-.116.291-.116.7s.058.7.116.7.116-.291.116-.7S83.174,95.2,83.116,95.2Z" transform="translate(-53.696 -44.051)" fill="#fefefe" fill-rule="evenodd"/>
      <path id="Path_8912" data-name="Path 8912" d="M82.416,95.3c-.058,0-.116.291-.116.7,0,.349.058.7.116.7s.116-.291.116-.7C82.533,95.649,82.474,95.3,82.416,95.3Z" transform="translate(-53.403 -44.093)" fill="#fefefe" fill-rule="evenodd"/>
      <path id="Path_8913" data-name="Path 8913" d="M81.516,95.7c-.058,0-.116.291-.116.7,0,.349.058.7.116.7s.116-.291.116-.7S81.574,95.7,81.516,95.7Z" transform="translate(-53.026 -44.261)" fill="#fefefe" fill-rule="evenodd"/>
      <path id="Path_8914" data-name="Path 8914" d="M80.816,95.8c-.058,0-.116.291-.116.7,0,.349.058.7.116.7s.116-.291.116-.7C80.874,96.091,80.874,95.8,80.816,95.8Z" transform="translate(-52.733 -44.303)" fill="#fefefe" fill-rule="evenodd"/>
      <path id="Path_8915" data-name="Path 8915" d="M79.916,96c-.058,0-.116.291-.116.7s.058.7.116.7.116-.291.116-.7S79.974,96,79.916,96Z" transform="translate(-52.357 -44.386)" fill="#fefefe" fill-rule="evenodd"/>
      <path id="Path_8916" data-name="Path 8916" d="M81.649,92c-.174,0-.349.349-.349.814s.174.814.349.814.349-.349.349-.814S81.881,92,81.649,92Z" transform="translate(-52.984 -42.712)" fill="#fefefe" fill-rule="evenodd"/>
      <path id="Path_8917" data-name="Path 8917" d="M83.291,91.5c-.174,0-.291.349-.291.756s.116.756.291.756.291-.349.291-.756C83.64,91.849,83.465,91.5,83.291,91.5Z" transform="translate(-53.696 -42.503)" fill="#fefefe" fill-rule="evenodd"/>
      <path id="Path_8918" data-name="Path 8918" d="M84.874,90.8c-.116,0-.174.349-.174.756s.058.756.174.756.174-.349.174-.756S84.991,90.8,84.874,90.8Z" transform="translate(-54.407 -42.21)" fill="#fefefe" fill-rule="evenodd"/>
      <path id="Path_8919" data-name="Path 8919" d="M86.016,90c-.058,0-.116.349-.116.756s.058.756.116.756.116-.349.116-.756C86.191,90.349,86.133,90,86.016,90Z" transform="translate(-54.91 -41.875)" fill="#fefefe" fill-rule="evenodd"/>
      <path id="Path_8920" data-name="Path 8920" d="M85.333,86.8c-.116,0-.233.349-.233.756s.116.756.233.756.233-.349.233-.756S85.449,86.8,85.333,86.8Z" transform="translate(-54.575 -40.536)" fill="#fefefe" fill-rule="evenodd"/>
      <path id="Path_8921" data-name="Path 8921" d="M83.891,87.4c-.174,0-.291.349-.291.756s.116.756.291.756.291-.349.291-.756S84.065,87.4,83.891,87.4Z" transform="translate(-53.947 -40.787)" fill="#fefefe" fill-rule="evenodd"/>
      <path id="Path_8922" data-name="Path 8922" d="M81.949,87.9c-.233,0-.349.407-.349.93s.174.93.349.93c.233,0,.349-.407.349-.93C82.3,88.365,82.181,87.9,81.949,87.9Z" transform="translate(-53.11 -40.996)" fill="#fefefe" fill-rule="evenodd"/>
      <path id="Path_8923" data-name="Path 8923" d="M86.674,86.2c-.116,0-.174.349-.174.756s.058.756.174.756.174-.349.174-.756A1.2,1.2,0,0,0,86.674,86.2Z" transform="translate(-55.161 -40.285)" fill="#fefefe" fill-rule="evenodd"/>
      <path id="Path_8924" data-name="Path 8924" d="M87.516,85.9c-.058,0-.116.233-.116.523s.058.523.116.523.116-.233.116-.523S87.633,85.9,87.516,85.9Z" transform="translate(-55.537 -40.159)" fill="#fefefe" fill-rule="evenodd"/>
      <path id="Path_8925" data-name="Path 8925" d="M86.249,81.8c-.233,0-.349.465-.349,1.1,0,.581.174,1.1.349,1.1.233,0,.349-.465.349-1.1S86.481,81.8,86.249,81.8Z" transform="translate(-54.91 -38.443)" fill="#fefefe" fill-rule="evenodd"/>
      <path id="Path_8926" data-name="Path 8926" d="M87.891,81.2c-.174,0-.291.349-.291.814s.116.814.291.814.291-.349.291-.814S88.065,81.2,87.891,81.2Z" transform="translate(-55.621 -38.192)" fill="#fefefe" fill-rule="evenodd"/>
      <path id="Path_8927" data-name="Path 8927" d="M84.349,82.3c-.233,0-.349.465-.349,1.1,0,.581.174,1.1.349,1.1.233,0,.349-.465.349-1.1C84.7,82.823,84.581,82.3,84.349,82.3Z" transform="translate(-54.114 -38.652)" fill="#fefefe" fill-rule="evenodd"/>
      <path id="Path_8928" data-name="Path 8928" d="M81.823,82.9c-.291,0-.523.465-.523,1.1,0,.581.233,1.1.523,1.1s.523-.465.523-1.1C82.288,83.423,82.114,82.9,81.823,82.9Z" transform="translate(-52.984 -38.903)" fill="#fefefe" fill-rule="evenodd"/>
      <path id="Path_8929" data-name="Path 8929" d="M81.665,77.2c-.233,0-.465.581-.465,1.337s.233,1.337.465,1.337.465-.581.465-1.337S81.9,77.2,81.665,77.2Z" transform="translate(-52.942 -36.518)" fill="#fefefe" fill-rule="evenodd"/>
      <path id="Path_8930" data-name="Path 8930" d="M84.049,77.1c-.233,0-.349.523-.349,1.163s.174,1.163.349,1.163c.233,0,.349-.523.349-1.163S84.223,77.1,84.049,77.1Z" transform="translate(-53.989 -36.476)" fill="#fefefe" fill-rule="evenodd"/>
      <path id="Path_8931" data-name="Path 8931" d="M86.049,76.9c-.174,0-.349.523-.349,1.163s.116,1.163.349,1.163c.174,0,.349-.523.349-1.163C86.34,77.423,86.223,76.9,86.049,76.9Z" transform="translate(-54.826 -36.392)" fill="#fefefe" fill-rule="evenodd"/>
      <path id="Path_8932" data-name="Path 8932" d="M88.049,76c-.174,0-.349.523-.349,1.163s.116,1.163.349,1.163c.174,0,.349-.523.349-1.163C88.34,76.465,88.223,76,88.049,76Z" transform="translate(-55.663 -36.015)" fill="#fefefe" fill-rule="evenodd"/>
      <path id="Path_8933" data-name="Path 8933" d="M89.991,75.2c-.174,0-.291.523-.291,1.163s.116,1.163.291,1.163.291-.523.291-1.163C90.223,75.665,90.107,75.2,89.991,75.2Z" transform="translate(-56.5 -35.681)" fill="#fefefe" fill-rule="evenodd"/>
      <path id="Path_8934" data-name="Path 8934" d="M80.781,72.1c-.291,0-.581.581-.581,1.337s.233,1.337.581,1.337c.291,0,.581-.581.581-1.337S81.072,72.1,80.781,72.1Z" transform="translate(-52.524 -34.383)" fill="#fefefe" fill-rule="evenodd"/>
      <path id="Path_8935" data-name="Path 8935" d="M82.743,71.688c-.233.058-.291.7-.116,1.4s.465,1.221.756,1.1c.233-.058.291-.7.116-1.4S82.976,71.572,82.743,71.688Z" transform="translate(-53.497 -34.204)" fill="#fefefe" fill-rule="evenodd"/>
      <path id="Path_8936" data-name="Path 8936" d="M84.443,71.7c-.233.058-.291.64-.116,1.279s.465,1.1.64,1.047c.233-.058.291-.64.116-1.279C84.967,72.045,84.676,71.638,84.443,71.7Z" transform="translate(-54.209 -34.212)" fill="#fefefe" fill-rule="evenodd"/>
      <path id="Path_8937" data-name="Path 8937" d="M86.073,71.387c-.174.058-.233.581-.116,1.163s.407.988.581.93.233-.581.116-1.163S86.305,71.271,86.073,71.387Z" transform="translate(-54.908 -34.077)" fill="#fefefe" fill-rule="evenodd"/>
      <path id="Path_8938" data-name="Path 8938" d="M87.473,70.6c-.174.058-.233.581-.116,1.163s.407.988.581.93.233-.581.116-1.163C88,70.945,87.705,70.538,87.473,70.6Z" transform="translate(-55.494 -33.751)" fill="#fefefe" fill-rule="evenodd"/>
      <path id="Path_8939" data-name="Path 8939" d="M79.907,67.7c-.233,0-.407.465-.407,1.047s.174,1.047.407,1.047.407-.465.407-1.047S80.14,67.7,79.907,67.7Z" transform="translate(-52.231 -32.542)" fill="#fefefe" fill-rule="evenodd"/>
      <path id="Path_8940" data-name="Path 8940" d="M81.841,67.5c-.233,0-.407.523-.349,1.1s.233,1.047.465,1.047.407-.523.349-1.1C82.306,67.965,82.073,67.5,81.841,67.5Z" transform="translate(-53.06 -32.458)" fill="#fefefe" fill-rule="evenodd"/>
      <path id="Path_8941" data-name="Path 8941" d="M79.249,63.4c-.233,0-.349.465-.349,1.047s.233,1.047.407,1.047.349-.465.349-1.047S79.481,63.4,79.249,63.4Z" transform="translate(-51.98 -30.742)" fill="#fefefe" fill-rule="evenodd"/>
      <path id="Path_8942" data-name="Path 8942" d="M80.891,63.4c-.174,0-.291.407-.291.93.058.523.233.93.407.93s.291-.407.291-.93C81.24,63.807,81.065,63.4,80.891,63.4Z" transform="translate(-52.691 -30.742)" fill="#fefefe" fill-rule="evenodd"/>
      <path id="Path_8943" data-name="Path 8943" d="M82.263,63.4c-.116,0-.233.407-.174.872s.233.814.349.814.233-.407.174-.872S82.438,63.4,82.263,63.4Z" transform="translate(-53.308 -30.742)" fill="#fefefe" fill-rule="evenodd"/>
      <path id="Path_8944" data-name="Path 8944" d="M80.441,59.3c-.233,0-.407.407-.349.872s.291.872.523.872.407-.407.349-.872C80.906,59.649,80.673,59.3,80.441,59.3Z" transform="translate(-52.474 -29.026)" fill="#fefefe" fill-rule="evenodd"/>
      <path id="Path_8945" data-name="Path 8945" d="M86.8,91.637l.349-1.337c.64,1.686,1.221,3.14,2.558,4.128,1.4-.465,1.744.64,1.8,1.279,0,.058-.174,0-.233,0-.233-.872-1.337-1.221-2.21-.291-.058-.058-.233-.116-.174-.233.058-.233.465-.523.465-.523A7.456,7.456,0,0,1,86.8,91.637Z" transform="translate(-55.286 -42.001)" fill="#fefefe" fill-rule="evenodd"/>
      <path id="Path_8946" data-name="Path 8946" d="M90.08,80.741c-.116-.233-.233-.407-.349-.349s-.116.291-.058.581c.116.233.233.407.349.349A.641.641,0,0,0,90.08,80.741Z" transform="translate(-56.473 -37.849)" fill="#fefefe" fill-rule="evenodd"/>
      <path id="Path_8947" data-name="Path 8947" d="M78.581,72.9c-.291,0-.581.581-.581,1.337s.233,1.337.581,1.337.581-.581.581-1.337S78.872,72.9,78.581,72.9Z" transform="translate(-51.603 -34.718)" fill="#fefefe" fill-rule="evenodd"/>
      <path id="Path_8948" data-name="Path 8948" d="M78.5,78.1c-.407,0-.7.64-.7,1.454s.349,1.454.7,1.454c.407,0,.7-.64.7-1.454C79.254,78.74,78.9,78.1,78.5,78.1Z" transform="translate(-51.519 -36.894)" fill="#fefefe" fill-rule="evenodd"/>
      <path id="Path_8949" data-name="Path 8949" d="M77.659,83.6c-.291.058-.523.581-.465,1.279.058.64.349,1.163.64,1.1s.523-.581.465-1.279C78.24,84.065,77.949,83.6,77.659,83.6Z" transform="translate(-51.262 -39.196)" fill="#fefefe" fill-rule="evenodd"/>
      <path id="Path_8950" data-name="Path 8950" d="M79.923,83.7c.233,0,.465.465.465,1.163,0,.64-.233,1.221-.523,1.221-.233,0-.465-.465-.465-1.163C79.458,84.281,79.691,83.758,79.923,83.7Z" transform="translate(-52.189 -39.238)" fill="#fefefe" fill-rule="evenodd"/>
      <path id="Path_8951" data-name="Path 8951" d="M77.5,88.6c-.291,0-.465.523-.407,1.1s.291,1.1.581,1.047c.291,0,.465-.523.407-1.1S77.79,88.6,77.5,88.6Z" transform="translate(-51.218 -41.289)" fill="#fefefe" fill-rule="evenodd"/>
      <path id="Path_8952" data-name="Path 8952" d="M79.915,88.5c.291,0,.465.523.407,1.1s-.291,1.1-.523,1.047c-.291,0-.465-.523-.407-1.1,0-.581.233-1.047.523-1.047Z" transform="translate(-52.181 -41.247)" fill="#fefefe" fill-rule="evenodd"/>
      <path id="Path_8953" data-name="Path 8953" d="M77.865,92.9c.233,0,.465.349.465.814s-.174.814-.465.814c-.233,0-.465-.349-.465-.814C77.458,93.249,77.633,92.9,77.865,92.9Z" transform="translate(-51.352 -43.089)" fill="#fefefe" fill-rule="evenodd"/>
      <path id="Path_8954" data-name="Path 8954" d="M79.907,92.9c.233,0,.407.349.407.814s-.174.814-.407.814-.407-.349-.407-.814C79.558,93.249,79.733,92.9,79.907,92.9Z" transform="translate(-52.231 -43.089)" fill="#fefefe" fill-rule="evenodd"/>
      <path id="Path_8955" data-name="Path 8955" d="M83.573,67.3c-.174.058-.233.581-.116,1.1s.407.93.581.872.233-.581.116-1.1-.407-.93-.581-.872Z" transform="translate(-53.862 -32.37)" fill="#fefefe" fill-rule="evenodd"/>
      <path id="Path_8956" data-name="Path 8956" d="M85.121,67.2c-.174.058-.116.465,0,.93.174.465.407.814.581.756s.116-.465,0-.93C85.528,67.486,85.237,67.137,85.121,67.2Z" transform="translate(-54.537 -32.328)" fill="#fefefe" fill-rule="evenodd"/>
      <path id="Path_8957" data-name="Path 8957" d="M83.513,63.5c-.116,0-.174.349-.058.756s.233.7.407.7c.116,0,.174-.349.058-.756S83.629,63.437,83.513,63.5Z" transform="translate(-53.859 -30.779)" fill="#fefefe" fill-rule="evenodd"/>
      <path id="Path_8958" data-name="Path 8958" d="M78.24,58.5c.349,0,.64.523.64,1.163s-.291,1.163-.64,1.163-.64-.523-.64-1.163S77.891,58.5,78.24,58.5Z" transform="translate(-51.436 -28.691)" fill="#fefefe" fill-rule="evenodd"/>
      <path id="Path_8959" data-name="Path 8959" d="M82.133,59.4c-.174,0-.233.349-.233.814.058.465.233.814.349.814.174,0,.233-.349.233-.814S82.307,59.4,82.133,59.4Z" transform="translate(-53.235 -29.068)" fill="#fefefe" fill-rule="evenodd"/>
      <path id="Path_8960" data-name="Path 8960" d="M73.349,48.4a14.062,14.062,0,0,0,3.489.174l.407,2.093-.407-.465v.465l-.349-.291V50.9l-.233-.523-.174.407-.233-.407-.174.465-.233-.349-.174.349-.233-.407-.291.349-.174-.407-.116.407-.174-.465-.233.407-.116-.407-.174.407-.174-.465-.233.349-.058-.407L73,50.551l.349-2.151Z" transform="translate(-49.51 -24.464)" fill="#fefefe" fill-rule="evenodd"/>
      <path id="Path_8961" data-name="Path 8961" d="M72.852,53.791c1.221.291,3.256-.233,4.419-.291a7.766,7.766,0,0,1,.581,2.151l-.523-.7-.233.872-.233-.756-.291.988-.233-.93-.233.93-.233-.872L75.643,56l-.233-.814-.233.988L75,55.244l-.174.93-.174-.872-.291.872-.058-.872-.349.872L73.9,55.3l-.407.814-.058-.756-.291.7v-.814l-.407.872a6.218,6.218,0,0,1,.116-2.326Z" transform="translate(-49.363 -26.598)" fill="#fefefe" fill-rule="evenodd"/>
      <path id="Path_8962" data-name="Path 8962" d="M75.57,44.461l-.291-.407-.233.407L74.93,44l-.233.465L74.581,44l-.291.349-.058-.407L74,44.286c.116-.756.465-1.512.523-2.326a5.192,5.192,0,0,1,2.733-.174l.523-.872-.465.291-.058-.291-.407.291v-.233l-.407.233v-.291l-.465.349.116-.349-.64.407c.349-.872,1.977-1.1,3.372-1.221-.116.523-1.279.291-.349,1.512l1.628.058c-2.849.407-2.675,1.4-2.849,2.675l-.233-.523-.233.581-.233-.349-.233.349-.174-.523-.233.465-.174-.523-.174.64Z" transform="translate(-49.929 -20.99)" fill="#fefefe" fill-rule="evenodd"/>
      <path id="Path_8963" data-name="Path 8963" d="M82.049,41.1c-.174,0-.349.116-.349.174,0,.116.174.174.349.174s.349-.116.349-.174C82.4,41.158,82.223,41.1,82.049,41.1Z" transform="translate(-53.152 -21.408)" fill="#fefefe" fill-rule="evenodd"/>
      <path id="Path_8964" data-name="Path 8964" d="M83.491,40.9l.291.523H83.2Z" transform="translate(-53.78 -21.325)" fill="#fefefe" fill-rule="evenodd"/>
      <path id="Path_8965" data-name="Path 8965" d="M84.9,40.9c.233,0,1.686.349,1.861,1.163A3.673,3.673,0,0,0,84.9,41.6Z" transform="translate(-54.491 -21.325)" fill="#fefefe" fill-rule="evenodd"/>
      <path id="Path_8966" data-name="Path 8966" d="M83.8,38.4l.814.349v.872l-.814-.349Z" transform="translate(-54.031 -20.278)" fill="#fefefe" fill-rule="evenodd"/>
      <path id="Path_8967" data-name="Path 8967" d="M77.159,38.161c-2.442-.64-6.861,1.512-7.559-1.861C71.054,38.742,75.589,36.126,77.159,38.161Z" transform="translate(-48.087 -19.399)" fill="#fefefe" fill-rule="evenodd"/>
      <path id="Path_8968" data-name="Path 8968" d="M69.8,38.3c2.151,2.268,3.838.64,5.756.93C73.056,39.87,71.544,41.091,69.8,38.3Z" transform="translate(-48.171 -20.236)" fill="#fefefe" fill-rule="evenodd"/>
      <path id="Path_8969" data-name="Path 8969" d="M89.222,71.5c.174,0,.407.233.523.581.058.291,0,.581-.233.581-.174,0-.407-.233-.523-.581C88.931,71.791,89.047,71.5,89.222,71.5Z" transform="translate(-56.196 -34.132)" fill="#fefefe" fill-rule="evenodd"/>
    </g>
  </g>
</svg>
