<svg xmlns="http://www.w3.org/2000/svg" width="18" height="15.148" viewBox="0 0 18 15.148">
  <g id="multiple-users-silhouette" transform="translate(0 -6.348)">
    <path id="Path_8619" data-name="Path 8619" d="M10.862,8.948a3.271,3.271,0,0,1,1.522,2.43,2.639,2.639,0,1,0-1.522-2.43ZM9.133,14.353a2.64,2.64,0,1,0-2.64-2.64A2.64,2.64,0,0,0,9.133,14.353Zm1.12.18H8.013a3.384,3.384,0,0,0-3.38,3.38v2.739l.007.043.189.059a15.386,15.386,0,0,0,4.6.741,9.435,9.435,0,0,0,4.013-.753l.176-.089h.019v-2.74A3.383,3.383,0,0,0,10.253,14.533Zm4.368-2.725H12.4a3.253,3.253,0,0,1-1,2.266,4.016,4.016,0,0,1,2.869,3.844v.844a9.1,9.1,0,0,0,3.543-.744l.176-.089H18v-2.74A3.384,3.384,0,0,0,14.62,11.808ZM4.5,11.628a2.622,2.622,0,0,0,1.4-.407A3.267,3.267,0,0,1,7.133,9.137c0-.049.007-.1.007-.148A2.64,2.64,0,1,0,4.5,11.628Zm2.371,2.446a3.255,3.255,0,0,1-1-2.254c-.082-.006-.164-.013-.248-.013H3.38A3.384,3.384,0,0,0,0,15.188v2.74l.007.042.189.06A15.848,15.848,0,0,0,4,18.745v-.827A4.017,4.017,0,0,1,6.871,14.074Z" transform="translate(0 0)" fill="#fff"/>
  </g>
</svg>
