<svg id="owner" xmlns="http://www.w3.org/2000/svg" width="12.623" height="18.666" viewBox="0 0 12.623 18.666">
  <path id="Path_8593" data-name="Path 8593" d="M11.982,249.638l-3.342-1.415a.257.257,0,0,0-.211,0,.2.2,0,0,0-.12.151l-1.957,7.918-1.987-7.918a.3.3,0,0,0-.12-.151.254.254,0,0,0-.211,0L.723,249.487a1.049,1.049,0,0,0-.723.964v6.834a.259.259,0,0,0,.241.241H12.374a.237.237,0,0,0,.241-.241V250.6A.949.949,0,0,0,11.982,249.638Zm0,0" transform="translate(0 -238.86)" fill="#fff"/>
  <path id="Path_8594" data-name="Path 8594" d="M140.726,241.794a.639.639,0,0,0-.09-.783.62.62,0,0,0-.512-.211h-.9a.786.786,0,0,0-.512.211.679.679,0,0,0-.09.783l.241.361a1.03,1.03,0,0,1,.151.662l-.151,1.566.452,1.234a.391.391,0,0,0,.723,0l.452-1.234-.181-1.535a.988.988,0,0,1,.151-.662Zm0,0" transform="translate(-133.319 -231.739)" fill="#fff"/>
  <path id="Path_8595" data-name="Path 8595" d="M76.414,8.37a3.623,3.623,0,0,0,3.613-3.613V3.613a3.613,3.613,0,1,0-7.226,0V4.757A3.623,3.623,0,0,0,76.414,8.37Zm0,0" transform="translate(-70.061)" fill="#fff"/>
</svg>
