<svg xmlns="http://www.w3.org/2000/svg" width="18" height="20" viewBox="0 0 18 20">
  <path id="Path_8623" data-name="Path 8623" d="M1445,54a2.982,2.982,0,0,0,2.818-2h-5.636A2.979,2.979,0,0,0,1445,54Zm7-5h-14v-.586l1.707-1.707a1,1,0,0,0,.217-.324A1.009,1.009,0,0,0,1440,46V42a5,5,0,0,1,10,0v4a1,1,0,0,0,.293.707L1452,48.414Zm0-3.414V42a7.006,7.006,0,0,0-5.145-6.742,2,2,0,0,0-3.71,0A7.007,7.007,0,0,0,1438,42v3.586l-1.707,1.707a1,1,0,0,0-.217.324A1.009,1.009,0,0,0,1436,48v2a1,1,0,0,0,1,1h16a1,1,0,0,0,1-1V48a1.009,1.009,0,0,0-.076-.383,1,1,0,0,0-.217-.324Z" transform="translate(-1436 -34)" fill="#0445b1"/>
</svg>
