<svg id="timetable" xmlns="http://www.w3.org/2000/svg" width="16.649" height="16.649" viewBox="0 0 16.649 16.649">
  <path id="Path_8973" data-name="Path 8973" d="M246.39,242a4.39,4.39,0,1,0,4.39,4.39A4.395,4.395,0,0,0,246.39,242Zm1.951,4.878H246.39a.488.488,0,0,1-.488-.488v-1.951a.488.488,0,1,1,.976,0V245.9h1.463a.488.488,0,1,1,0,.976Zm0,0" transform="translate(-234.131 -234.131)" fill="#fff"/>
  <path id="Path_8974" data-name="Path 8974" d="M15.641,31.488A.483.483,0,0,0,15.153,31H12.714v1.463a.488.488,0,1,1-.976,0V31H9.788v1.463a.488.488,0,1,1-.976,0V31H6.861v1.463a.488.488,0,1,1-.976,0V31H3.935v1.463a.488.488,0,1,1-.976,0V31H.488A.483.483,0,0,0,0,31.488v2.439H15.641Zm0,0" transform="translate(0 -29.992)" fill="#fff"/>
  <path id="Path_8975" data-name="Path 8975" d="M7.349,155.878h.117a5.383,5.383,0,0,1,.625-.976H7.349a.488.488,0,0,1,0-.976h.976a.487.487,0,0,1,.446.292,5.339,5.339,0,0,1,3.456-1.268h-.976a.488.488,0,0,1,0-.976h.976a.488.488,0,0,1,0,.976,5.341,5.341,0,0,1,3.414,1.23V151H0v9.268a.488.488,0,0,0,.488.488H7.454a5.182,5.182,0,0,1-.349-3.977.481.481,0,0,1-.244-.413A.488.488,0,0,1,7.349,155.878Zm0-3.9h.976a.488.488,0,0,1,0,.976H7.349a.488.488,0,0,1,0-.976ZM4.422,158.8H3.447a.488.488,0,1,1,0-.976h.976a.488.488,0,1,1,0,.976Zm0-1.951H3.447a.488.488,0,1,1,0-.976h.976a.488.488,0,1,1,0,.976Zm0-1.951H3.447a.488.488,0,0,1,0-.976h.976a.488.488,0,0,1,0,.976Zm0-1.951H3.447a.488.488,0,0,1,0-.976h.976a.488.488,0,0,1,0,.976Zm0,0" transform="translate(0 -146.09)" fill="#fff"/>
  <path id="Path_8976" data-name="Path 8976" d="M91.976.488a.488.488,0,0,0-.976,0v.52h.976Zm0,0" transform="translate(-88.041)" fill="#fff"/>
  <path id="Path_8977" data-name="Path 8977" d="M181.976.488a.488.488,0,0,0-.976,0v.52h.976Zm0,0" transform="translate(-175.114)" fill="#fff"/>
  <path id="Path_8978" data-name="Path 8978" d="M271.976.488a.488.488,0,1,0-.975,0v.52h.975Zm0,0" transform="translate(-262.188)" fill="#fff"/>
  <path id="Path_8979" data-name="Path 8979" d="M361.976.488a.488.488,0,1,0-.975,0v.52h.975Zm0,0" transform="translate(-349.261)" fill="#fff"/>
</svg>
